<svg id="Layer_2" data-name="Layer 2" xmlns="http://www.w3.org/2000/svg" viewBox="0 0 100 100"><defs><style>.cls-1{fill:#fff;}.cls-2{fill:none;stroke:#fff;stroke-miterlimit:10;}</style></defs><path class="cls-1" d="M24.75,99.36a27.91,27.91,0,0,0,5.09,0Z"/><path class="cls-2" d="M21.58,14.44A45.33,45.33,0,0,1,42.5,5.08c-.59.15-1.2.33-1.83.53a28.33,28.33,0,0,0-8.19,4.32,31.2,31.2,0,0,0-7.91,9,25.59,25.59,0,0,0-3,8.4Zm0,16.18a26.55,26.55,0,0,1,3.33-11.47A29,29,0,0,1,40.8,6a25.42,25.42,0,0,1,8.87-1.38V32.43H44a4.52,4.52,0,0,0-1,0H21.58Zm28,10.68c-.5,3.44-3.44,6.06-6,7.37a10.37,10.37,0,0,1-4.33,1.08V39.54H49.66a.86.86,0,0,0,0,.16v.81C49.65,40.78,49.63,41,49.59,41.3Zm.08,1.39V49.8h-8A10.67,10.67,0,0,0,43.75,49a13.27,13.27,0,0,0,4-3.1A9.67,9.67,0,0,0,49.67,42.69Zm-6.82-4.83a1.14,1.14,0,0,1-.09.31,1.54,1.54,0,0,1-.95.72v-1Zm-1-.39v-.66h.26v.66Zm.66,0v-.41a.3.3,0,0,1,.3.17.57.57,0,0,1,.08.24Zm.62.9v.77h-.82A1.85,1.85,0,0,0,43.09,38.37Zm-3.72-2a4.37,4.37,0,0,1,.85-2.19A4.52,4.52,0,0,1,43,32.83h.06v3.58Zm2.05.4V39a1.69,1.69,0,0,1-.66-.1,2.45,2.45,0,0,1-1.37-2,.28.28,0,0,1,0-.09ZM39.91,34a4.77,4.77,0,0,0-.67,1.21V32.83h2.28A4.11,4.11,0,0,0,39.91,34Zm.5,5.16H39.24V37.8A2.45,2.45,0,0,0,40.41,39.14Zm3.08,0V32.83h.59c2.66.35,4.82,2.94,5.37,5.26a8.51,8.51,0,0,1,.18,1Zm2-6.31h4.13v4.59A7.92,7.92,0,0,0,45.54,32.83ZM37.5,58v.27h-.65V58Zm-.4-.39a.34.34,0,0,1,.17-.31.57.57,0,0,1,.23-.08v.39ZM39,58.62a1.91,1.91,0,0,1-.09.66,2.44,2.44,0,0,1-2,1.37l-.09,0V58.62Zm-1.09-.4v-1a.88.88,0,0,1,.3.1,1.59,1.59,0,0,1,.73.95Zm1.27,1.41V60.8H37.84A2.43,2.43,0,0,0,39.17,59.63Zm-.76-2.7h.76v.83A1.8,1.8,0,0,0,38.41,56.93Zm-5.52-.4v-.59c.35-2.68,2.92-4.85,5.24-5.4a8.35,8.35,0,0,1,1-.18v6.17Zm1.39,3.29A4.47,4.47,0,0,1,32.89,57v-.07h3.57v3.74A4.34,4.34,0,0,1,34.28,59.82Zm1,1H32.89V58.51A4.23,4.23,0,0,0,34,60.13,4.77,4.77,0,0,0,35.24,60.8Zm-2.35-6.33V50.29h4.68A7.88,7.88,0,0,0,32.89,54.47ZM21.58,32.83H38.85V49.76a18.33,18.33,0,0,1-8-2A17.36,17.36,0,0,1,21.92,35.9a18.74,18.74,0,0,1-.34-2.35Zm0,3.34a17.77,17.77,0,0,0,9.1,11.89,20.48,20.48,0,0,0,4.86,1.74h-14ZM32.49,50.29V56a4.52,4.52,0,0,0,0,1V78.55H30.68a26.29,26.29,0,0,1-11.41-3.34,29.1,29.1,0,0,1-13.11-16A25.86,25.86,0,0,1,4.79,50.3h27.7ZM21.19,14.75V30.6c0,.48-.05.95-.05,1.41s0,1.05.05,1.56V49.8H4.46A45.48,45.48,0,0,1,21.19,14.75ZM4.74,55.11A28.73,28.73,0,0,0,10.09,67.6a31.17,31.17,0,0,0,9,8,25.38,25.38,0,0,0,8.36,3H14.54A45.35,45.35,0,0,1,4.74,55.11Zm45,40.43A45.49,45.49,0,0,1,14.86,79H30.67c.47,0,.94,0,1.41,0s1,0,1.55,0h16.1Zm0-17H36.22a17.7,17.7,0,0,0,11.83-9.14,20.65,20.65,0,0,0,1.68-4.66Zm0-16.59a19.07,19.07,0,0,1-2,7.27,17.3,17.3,0,0,1-11.76,9,18.43,18.43,0,0,1-2.33.34h-.72V61.19H49.73Zm0-1.16H39.57V50.33a7.8,7.8,0,0,1,1.75.07c3.43.5,6,3.46,7.34,6.05a10.49,10.49,0,0,1,1.07,4.21Zm0-2.64A10.44,10.44,0,0,0,49,56.27a13.49,13.49,0,0,0-3.09-4.05,9.2,9.2,0,0,0-3.32-1.93h7.13Zm.45-53.7a45.49,45.49,0,0,1,35,16.66H69.31c-.47,0-1-.05-1.41-.05s-1,0-1.56.05H50.18Zm0,17.06H63.74a17.73,17.73,0,0,0-11.89,9.14,21,21,0,0,0-1.67,4.59Zm0,16.35a19.38,19.38,0,0,1,2-7,17.38,17.38,0,0,1,11.81-9,17.06,17.06,0,0,1,2.35-.34h.72V38.87H50.18ZM61.82,49.53a8.52,8.52,0,0,1-1,.17V43.53h6.31v.59C66.73,46.8,64.14,49,61.82,49.53Zm5.26-3.94v4.19h-4.7A7.88,7.88,0,0,0,67.08,45.59Zm-4.63-3.48v-.26h.65v.26Zm.4.4a.33.33,0,0,1-.17.31.78.78,0,0,1-.23.08v-.39ZM61,41.45a1.67,1.67,0,0,1,.09-.66,2.48,2.48,0,0,1,2-1.38h.09v2.05Zm1.09.4v1a.94.94,0,0,1-.31-.09,1.54,1.54,0,0,1-.72-.95Zm-1.28-1.41V39.27h1.34A2.41,2.41,0,0,0,60.77,40.44Zm.77,2.7h-.77v-.83A2,2,0,0,0,61.54,43.14Zm2,0V39.39a4.38,4.38,0,0,1,2.19.86,4.5,4.5,0,0,1,1.39,2.82v.07Zm2.43-3.2a4.1,4.1,0,0,0-1.21-.67h2.36v2.29A4.14,4.14,0,0,0,65.93,39.94ZM57.08,62.21a1.13,1.13,0,0,1,.1-.31,1.55,1.55,0,0,1,1-.73v1Zm1.05.39v.66h-.26V62.6Zm-.66,0V63a.34.34,0,0,1-.31-.16.85.85,0,0,1-.08-.24Zm-.63-.91v-.77h.83A1.87,1.87,0,0,0,56.84,61.69Zm3.75,2a4.34,4.34,0,0,1-.85,2.19,4.56,4.56,0,0,1-2.83,1.4h-.07V63.65Zm-2.06-.39V61.11a1.88,1.88,0,0,1,.66.09,2.47,2.47,0,0,1,1.38,2,.28.28,0,0,1,0,.09Zm1.52,2.83a4.68,4.68,0,0,0,.67-1.22v2.37h-2.3A4.4,4.4,0,0,0,60.05,66.09Zm-.5-5.17h1.17v1.34A2.56,2.56,0,0,0,59.55,60.92Zm-9.32-.39v-1.2l.06-.56c.51-3.44,3.47-6.07,6.07-7.37a10.55,10.55,0,0,1,4.36-1.09V60.53ZM50.44,62a8.67,8.67,0,0,1-.18-1.06h6.18v6.32h-.59C53.16,66.88,51,64.3,50.44,62Zm3.94,5.26H50.23V62.69A8,8,0,0,0,54.38,67.24Zm-4.15-9.91V50.27h8a10.79,10.79,0,0,0-2.09.77,13.59,13.59,0,0,0-4.06,3.11A9.47,9.47,0,0,0,50.23,57.33Zm0-18.06H60.37V49.73a8.54,8.54,0,0,1-1.76-.06c-3.44-.5-6.06-3.46-7.37-6.06a10.4,10.4,0,0,1-1.06-4Zm0,2.68a10.11,10.11,0,0,0,.71,1.84A13.28,13.28,0,0,0,54,47.85a9.34,9.34,0,0,0,3.34,1.93H50.18ZM78.51,85.49A45.42,45.42,0,0,1,58,94.84l1.27-.39a28.34,28.34,0,0,0,8.26-4.32,31.32,31.32,0,0,0,8-9,25.7,25.7,0,0,0,3-8.4Zm0-16a26.42,26.42,0,0,1-3.35,11.47,29.17,29.17,0,0,1-16,13.16,25.9,25.9,0,0,1-8.92,1.38V67.63h5.66a4.53,4.53,0,0,0,1,0H78.51Zm0-2.21H61.12V50.3a18.53,18.53,0,0,1,8.05,2.06,17.37,17.37,0,0,1,9,11.81,18.32,18.32,0,0,1,.34,2.34Zm0-3.35A17.77,17.77,0,0,0,69.35,52a20.91,20.91,0,0,0-4.9-1.74H78.51Zm.4,21.28V69.46c0-.47,0-.94,0-1.41s0-1,0-1.56V50.27H95.54A45.49,45.49,0,0,1,78.91,85.17ZM95.3,49.78H67.48V44.09a4.61,4.61,0,0,0,0-1.05V21.52h1.81a26.38,26.38,0,0,1,11.47,3.34,29.14,29.14,0,0,1,13.17,16,25.29,25.29,0,0,1,1.37,8.94Zm-.19-6.09a29.9,29.9,0,0,0-.81-3A28.65,28.65,0,0,0,90,32.46a31.29,31.29,0,0,0-9-7.94,25.4,25.4,0,0,0-8.39-3H85.51A45.3,45.3,0,0,1,95.11,43.69Z"/><path class="cls-1" d="M42.32,35.74h.2v.2A.76.76,0,0,0,42.32,35.74Z"/><path class="cls-1" d="M64.1,42.37v.19h-.2A.9.9,0,0,0,64.1,42.37Z"/><path class="cls-1" d="M35.78,57.63v-.19H36A.9.9,0,0,0,35.78,57.63Z"/><path class="cls-1" d="M57.54,64.26h-.2v-.2A.76.76,0,0,0,57.54,64.26Z"/></svg>