<svg id="Layer_1" data-name="Layer 1" xmlns="http://www.w3.org/2000/svg" viewBox="0 0 92.73 92.73"><defs><style>.cls-1{fill:#9e968d;stroke-miterlimit:10;}.cls-1,.cls-2{stroke:#fff;stroke-width:2.5px;}.cls-2{fill:none;stroke-linecap:round;stroke-linejoin:round;}</style></defs><circle class="cls-1" cx="46.36" cy="46.36" r="45.11"/><path class="cls-2" d="M57.87,46.18C49.77,51.72,46.66,66,46.66,66S58.77,70,66.88,64.42c6.55-4.48,8.28-14.88,11.43-20C73,45.1,64.43,41.7,57.87,46.18Z"/><path class="cls-2" d="M50.47,42.52c-5.69,8.77-3.9,23.4-3.9,23.4S59,64.09,64.72,55.32c4.6-7.09,2.81-17.48,4.06-23.63C64.06,34.73,55.07,35.43,50.47,42.52Z"/><path class="cls-2" d="M14.42,44.41c3.15,5.13,4.88,15.53,11.43,20C34,70,46.07,66,46.07,66S43,51.72,34.86,46.18C28.3,41.7,19.77,45.1,14.42,44.41Z"/><path class="cls-2" d="M24,31.69c1.25,6.15-.54,16.54,4.06,23.63,5.69,8.77,18.15,10.6,18.15,10.6s1.79-14.63-3.9-23.4C37.66,35.43,28.67,34.73,24,31.69Z"/><path class="cls-2" d="M37.4,44.41c0,11,9,21.39,9,21.39s9-10.35,9-21.39c0-8.92-6.78-15.89-9-21.68C44.18,28.52,37.4,35.5,37.4,44.41Z"/></svg>