<svg id="Layer_1" data-name="Layer 1" xmlns="http://www.w3.org/2000/svg" viewBox="0 0 92.73 92.73"><defs><style>.cls-1{fill:#b7cd96;stroke-miterlimit:10;}.cls-1,.cls-2{stroke:#fff;stroke-width:2.5px;}.cls-2{fill:none;stroke-linecap:round;stroke-linejoin:round;}</style></defs><circle class="cls-1" cx="46.36" cy="46.36" r="45.11"/><path class="cls-2" d="M33.49,31.5a15.17,15.17,0,0,0-2.29,3.33,8,8,0,0,0-.94,3.68,8.89,8.89,0,0,0,.93,3.78,13.92,13.92,0,0,0,2.36,3.42,25.26,25.26,0,0,0,2.18,1.84h0C41.15,52.18,50,54.32,56.1,52.4c4.1-1.3,6.36-3.52,6.36-6.25s-2.26-5-6.36-6.26C50.24,38,41.74,40,36.29,44.3L33.5,46.63A13.45,13.45,0,0,0,31.19,50v0a8.28,8.28,0,0,0-.87,3.61,9.29,9.29,0,0,0,.88,3.8,13,13,0,0,0,2.31,3.37,22.9,22.9,0,0,0,2.23,1.89h0c5.41,4.64,14.3,6.78,20.36,4.86,4.1-1.3,6.37-3.52,6.37-6.26s-2.27-4.95-6.37-6.25c-5.85-1.85-14.34.07-19.79,4.39l-2.79,2.41a13.38,13.38,0,0,0-2.33,3.39,8.42,8.42,0,0,0-.77,3.45A7.38,7.38,0,0,0,31,71.51a9.54,9.54,0,0,0,6.3,5.29l.18.06h0l.38.11"/><path class="cls-2" d="M37.37,15.76h0l-.11,0A9.55,9.55,0,0,0,31,21.09c-.1.24-.18.49-.26.74a7.41,7.41,0,0,0-.3,2,9.12,9.12,0,0,0,.28,1.93,10.26,10.26,0,0,0,.5,1.37,13.68,13.68,0,0,0,2.58,3.66c.61.57,1.3,1.09,2,1.6h0C41.15,37,50,39.16,56.1,37.24,60.2,36,62.46,33.72,62.46,31s-2.26-5-6.36-6.26c-5.87-1.85-14.39.09-19.84,4.43"/></svg>