<svg id="Layer_1" data-name="Layer 1" xmlns="http://www.w3.org/2000/svg" viewBox="0 0 92.73 92.73"><defs><style>.cls-1{fill:#ccc4a7;}.cls-1,.cls-2{stroke:#fff;stroke-miterlimit:10;stroke-width:2.5px;}.cls-2{fill:none;stroke-linecap:round;}</style></defs><circle class="cls-1" cx="46.37" cy="46.37" r="45.11"/><path class="cls-2" d="M25.1,57.38a1.05,1.05,0,0,0-.23,1.47h0a1.75,1.75,0,0,0,2.44.37,2.8,2.8,0,0,0,.6-3.91,4.54,4.54,0,0,0-6.35-1A7.34,7.34,0,0,0,20,64.6,11.89,11.89,0,0,0,36.6,67.14a19.23,19.23,0,0,0,4.11-26.87"/><path class="cls-2" d="M67,60.26a1.06,1.06,0,0,0,1.39-.54h0a1.76,1.76,0,0,0-.9-2.3,2.8,2.8,0,0,0-3.69,1.44,4.54,4.54,0,0,0,2.34,6,7.34,7.34,0,0,0,9.67-3.77,11.87,11.87,0,0,0-6.11-15.65,19.21,19.21,0,0,0-25.32,9.87"/><path class="cls-2" d="M48,22.42a1.06,1.06,0,0,0-1.16-.93h0a1.76,1.76,0,0,0-1.54,1.93,2.79,2.79,0,0,0,3.09,2.47,4.53,4.53,0,0,0,4-5,7.34,7.34,0,0,0-8.1-6.49,11.88,11.88,0,0,0-10.5,13.12A19.22,19.22,0,0,0,55,44.5l3.25-.31"/></svg>