<svg id="icon" xmlns="http://www.w3.org/2000/svg" viewBox="0 0 54.64 54.34"><defs><style>.cls-1{fill:#333;}</style></defs><path class="cls-1" d="M54.64,34.35c0-2.67-.16-4.76-3-5.39,0-.46,0-.92,0-1.4.07-2.71.14-5.52-1.53-7.25l-.08,0,.11-.06c0-.63,0-1.25,0-1.86,0-.81,0-1.65.09-2.49a7.44,7.44,0,0,0-.5-4.17c-1.09-2.08-3.53-2.26-5.94-2.26H42.57q-1.89-3-3.81-6c-.15-.23-.3-.51-.47-.81-.55-1-1.24-2.29-2.21-2.57a1.58,1.58,0,0,0-.38,0,3.06,3.06,0,0,0-1.53.62l-.36.21c-1.18.68-2.36,1.37-3.53,2.07l-.52.3-.22-.4C28.9,1.63,28,0,26.78,0a3.93,3.93,0,0,0-2.05.92c-.21.14-.41.28-.6.39L19.59,4c-3.05,1.82-6.1,3.66-9.07,5.49a.74.74,0,0,0-.17,0H8.82l-1.32,0c-2.16,0-4.38.22-5.89,1.82A5.72,5.72,0,0,0,.19,15a60.9,60.9,0,0,0,0,9.16c0,1.12.1,2.24.13,3.35.05,2.05,0,4.13,0,6.14-.09,4.84-.2,9.84,1,14.7.81,3.2,1.6,4.38,4.68,5.12a28.73,28.73,0,0,0,6.6.63l2.34,0h.15c.83,0,1.65,0,2.47,0,2.81,0,5.66.07,8.41.14s5.61.14,8.41.14c2,0,3.83,0,5.55-.11l1.47,0c3-.07,6.12-.14,8.34-2.36,1.58-1.58,1.52-4.37,1.47-6.83,0-.86,0-1.68,0-2.4H52a2,2,0,0,0,1.18-.29c1.52-1.06,1.5-5,1.49-7.19C54.64,34.83,54.63,34.56,54.64,34.35ZM30.06,53.17c-2.08,0-4.2-.08-6.25-.15-2.35-.08-4.79-.15-7.19-.16H16.5l-2.05,0-2,0a26.71,26.71,0,0,1-6.15-.58,4.49,4.49,0,0,1-3.19-2.44,2.51,2.51,0,0,0,.62.08.57.57,0,0,0,.57-.59.59.59,0,0,0-.58-.61,1.25,1.25,0,0,1-.89-.34.55.55,0,0,0-.31-.14c-.14-.51-.26-1-.38-1.58a39.22,39.22,0,0,1-.78-7.21c0-1.74,0-3.5.1-5.21s.14-3.75.08-5.64q-.06-1.73-.15-3.48c-.05-1-.1-2.06-.14-3.09l.26.14a.54.54,0,0,0,.27.07.66.66,0,0,0,.62-.51.52.52,0,0,0-.3-.6l-.89-.46c0-1.08,0-2,0-2.86.88.86,2.43,1.3,4.62,1.3l.8,0C8.83,19,10.67,19,12.42,19c1.91,0,3.67.05,5.38.16,1.49.09,3.1.14,4.93.14s3.93-.06,5.85-.11,3.9-.1,5.85-.1c.76,0,1.51,0,2.27,0,2.13.05,4,.13,5.73.25l1,.05c1.87.09,4,.18,5.42,1.33,1.83,1.48,1.71,4.34,1.61,6.85,0,.45,0,.89-.05,1.31H50c-1.2,0-2.43.06-3.62.11-1,.05-1.93.1-2.89.11-2.18,0-3.89.07-5.41,1.9A8.6,8.6,0,0,0,36.24,38,5,5,0,0,0,39,41.55a15.21,15.21,0,0,0,6.77,1.12h1.61v0a.6.6,0,0,0,1.2,0v-.06l1.45,0c-.1,1-.13,2-.16,3s-.06,1.85-.14,2.78c-.29,3.26-2.56,4.12-5.89,4.4-3.16.26-6.63.39-10.95.39ZM26.25,1.6c1.09,0,1.8,1.14,2.43,2.15l0,.06C22.36,7.57,16,11.52,9.8,15.33l-.05.06c-1.32,0-2.64-.09-4-.16a17.9,17.9,0,0,1-2-.22c4.55-2.8,8.59-5.26,12.34-7.51q3.29-2,6.58-3.93c.29-.17.62-.4,1-.65a7,7,0,0,1,2.31-1.29ZM46.36,13.77c0,.11,0,.23.07.34a1.7,1.7,0,0,1,.06.31,6.83,6.83,0,0,1,0,1h-.11l-.12,0-1.12-1.8A6.15,6.15,0,0,1,46.36,13.77ZM49,16.11a13.57,13.57,0,0,0-.14,1.43c0,.42,0,.83,0,1.24l0,.53a5.77,5.77,0,0,0-1-.43c0-.18,0-.4.05-.63a3.09,3.09,0,0,0-.34-2.35,7.53,7.53,0,0,0,0-1.71,2.22,2.22,0,0,0-.5-1.37A1.89,1.89,0,0,0,46,12.49h-.14c-.33,0-.67,0-1,0a.75.75,0,0,0-.37.05l-1.16-1.87c2.67,0,5.62.12,5.82,3.52A10.65,10.65,0,0,1,49,16.11Zm-28.34-.57c1.28-.69,2.74-1.48,4.15-2.33l1.5-.93c.41-.27.83-.53,1.25-.79l.48-.31c.22-.14.29-.19.37-.19a1.21,1.21,0,0,1,.33.1l.52.19a10.8,10.8,0,0,0,3.51.86,5.72,5.72,0,0,0,2.51-.64,30.72,30.72,0,0,0,3,4H35.93l-7.9,0c-2.42,0-4.84,0-7.27,0Zm-14.08.93c2.54.12,5.24.2,8.5.24,1.89,0,3.77,0,5.66,0,2.67,0,5.35,0,8,0l3.72,0H37c1.38,0,2.76,0,4.14,0s2.7,0,4,.06c1.6,0,1.64.44,1.61,1.79A31.24,31.24,0,0,0,40.47,18l-1.88,0c-2.09-.08-4-.12-5.72-.12-.89,0-1.79,0-2.68,0-1.07,0-2.14,0-3.2,0-2.25,0-4.53-.05-6.74-.09s-4.48-.09-6.72-.09h-2c-.64,0-1.4.08-2.19.15-1,.09-2,.19-3.06.19a7,7,0,0,1-3.44-.69A2.73,2.73,0,0,1,1.5,15.86a8,8,0,0,0,3.74.6H6.59Zm43.14,25h0c-.5,0-1,0-1.65.07-.87,0-1.86.09-2.85.09-2.64,0-6.3-.32-7.53-3.1a5.72,5.72,0,0,1,.07-4.43c.87-2.44,2.39-3.62,4.79-3.7l2.51-.12c1.5-.07,3.06-.15,4.57-.15q.84,0,1.65,0c2.62.59,2.31,4.06,2.1,6.36l-.05.54,0,.41c-.09,1.36-.23,3.42-1.59,4a2.21,2.21,0,0,1-.72.09c-.23,0-.46,0-.68,0ZM35.19,1.29v.1c1.28.05,2.61,2.45,3.48,4,.23.41.43.76.59,1,1.78,2.79,3.61,5.73,5.59,9l-.65,0c-.37,0-.69,0-1,0H40.92l-1.07,0-.11,0,0-.12-.4-.47A27.34,27.34,0,0,1,36,10.42a.59.59,0,0,0-.52-.29.61.61,0,0,0-.3.08,6.41,6.41,0,0,1-3,.84A4,4,0,0,1,29.11,9.6a.57.57,0,0,0-.43-.18.54.54,0,0,0-.31.09,100.58,100.58,0,0,1-10,5.87c-.08,0-.15.1-.12.14h-.56c-1.6,0-3.21,0-4.81,0l-1,0c6.44-4,12.44-7.61,18.33-11.11l2.51-1.48c.18-.11.42-.29.69-.48a4.75,4.75,0,0,1,1.75-1v-.1ZM4.5,10.94a11.53,11.53,0,0,1,3-.32l1.11,0L6.74,11.77,6,12.23a15.58,15.58,0,0,0-4.08.82A4.54,4.54,0,0,1,4.5,10.94ZM2.08,14.15c.07-.17.39-.45,1.76-.61l-1.59,1C2,14.36,2.05,14.23,2.08,14.15Z"/><path class="cls-1" d="M43.92,32.46a.52.52,0,0,0-.23-.1.45.45,0,0,0-.18,0h-.07a4,4,0,0,0-.49,0A3.91,3.91,0,0,0,39.15,35a3.48,3.48,0,0,0,2.11,4.56,3.88,3.88,0,0,0,1.32.24,4.07,4.07,0,0,0,3.47-5.43A3.65,3.65,0,0,0,43.92,32.46Zm-1.34,6.11a2.87,2.87,0,0,1-1-.18A2.06,2.06,0,0,1,40.17,36a3,3,0,0,1,2.75-2.49,3.13,3.13,0,0,1,.44,0A2.46,2.46,0,0,1,45,34.89a2.67,2.67,0,0,1-.23,2.26A2.4,2.4,0,0,1,42.58,38.57Z"/><path class="cls-1" d="M7.17,21.7a.55.55,0,0,0-.58-.55l-1.89.12a.61.61,0,0,0-.57.65.53.53,0,0,0,.54.55l1.93-.12A.6.6,0,0,0,7.17,21.7Z"/><path class="cls-1" d="M12.56,21.61a.53.53,0,0,0-.58-.53l-2.22.2a.63.63,0,0,0-.57.67.52.52,0,0,0,.53.53l2.27-.2A.63.63,0,0,0,12.56,21.61Z"/><path class="cls-1" d="M17.22,21.89a.58.58,0,0,0-.58-.62H15.19a.59.59,0,0,0-.57.63.54.54,0,0,0,.56.57h1.47A.56.56,0,0,0,17.22,21.89Z"/><path class="cls-1" d="M22.69,21.82a.55.55,0,0,0-.59-.55h0c-.58,0-1.16,0-1.74,0h-.14a.6.6,0,0,0,0,1.2h.14c.58,0,1.17,0,1.75,0A.61.61,0,0,0,22.69,21.82Z"/><path class="cls-1" d="M27.93,22a.63.63,0,0,0-.57-.68c-.6-.05-1.22-.08-1.83-.08h-.17a.6.6,0,0,0,0,1.2h.17c.61,0,1.22,0,1.81.08h.07A.52.52,0,0,0,27.93,22Z"/><path class="cls-1" d="M32.62,22.51h0a.55.55,0,0,0,.56-.57.59.59,0,0,0-.58-.63l-.57,0a5.81,5.81,0,0,0-.72-.05,2.73,2.73,0,0,0-.66.07.55.55,0,0,0-.43.62.62.62,0,0,0,.59.56l.15,0a1.91,1.91,0,0,1,.43,0,4.62,4.62,0,0,1,.65.05Z"/><path class="cls-1" d="M35.63,22.36h1c.53,0,1.06,0,1.58,0a.6.6,0,0,0,.58-.64.54.54,0,0,0-.58-.56h0l-1.58,0h-1a.55.55,0,0,0-.56.57A.58.58,0,0,0,35.63,22.36Z"/><path class="cls-1" d="M41.51,22.35h.59a13.5,13.5,0,0,1,1.42.07h.07a.52.52,0,0,0,.52-.52.64.64,0,0,0-.57-.68,13.88,13.88,0,0,0-1.44-.07h-.6a.6.6,0,0,0-.58.63A.57.57,0,0,0,41.51,22.35Z"/><path class="cls-1" d="M46.68,24.07a.53.53,0,0,0,.48.29.63.63,0,0,0,.55-.32.57.57,0,0,0,0-.58,7,7,0,0,0-1-1.4.57.57,0,0,0-.41-.18.65.65,0,0,0-.57.4.57.57,0,0,0,.13.63A5.26,5.26,0,0,1,46.68,24.07Z"/><path class="cls-1" d="M47.3,26a.62.62,0,0,0-.44.17.54.54,0,0,0-.14.41l.07,1.7a.61.61,0,0,0,.62.58.63.63,0,0,0,.44-.18.52.52,0,0,0,.14-.41l-.07-1.7A.6.6,0,0,0,47.3,26Z"/><path class="cls-1" d="M8.44,49.56,7,49.48a.54.54,0,0,0-.55.56.6.6,0,0,0,.58.64l1.47.08a.54.54,0,0,0,.55-.56A.61.61,0,0,0,8.44,49.56Z"/><path class="cls-1" d="M14,49.51l-2.63-.09a.55.55,0,0,0-.56.57.58.58,0,0,0,.58.63l2.63.09a.55.55,0,0,0,.56-.57A.59.59,0,0,0,14,49.51Z"/><path class="cls-1" d="M19.5,49.42h0a9.82,9.82,0,0,1-1.21.07,10.22,10.22,0,0,1-1.06-.05.51.51,0,0,0-.52.52.64.64,0,0,0,.57.68,8.54,8.54,0,0,0,1,0h0a10.14,10.14,0,0,0,1.23-.07.67.67,0,0,0,.57-.7A.52.52,0,0,0,19.5,49.42Z"/><path class="cls-1" d="M24.46,49.35l-1.63.06a.6.6,0,0,0-.58.64.55.55,0,0,0,.56.57l1.66-.07a.6.6,0,0,0,.58-.63A.56.56,0,0,0,24.46,49.35Z"/><path class="cls-1" d="M30,49.54H28.12a.6.6,0,0,0,0,1.2H30a.6.6,0,0,0,0-1.2Z"/><path class="cls-1" d="M35.1,49.42l-.15,0a7.52,7.52,0,0,1-1.59.17c-.28,0-.57,0-.93,0a.5.5,0,0,0-.51.51.64.64,0,0,0,.57.69,8.46,8.46,0,0,0,.87.05,8.71,8.71,0,0,0,1.9-.21.53.53,0,0,0,.43-.61A.62.62,0,0,0,35.1,49.42Z"/><path class="cls-1" d="M39.8,49.5h0a2.17,2.17,0,0,1-.36,0,8.27,8.27,0,0,1-.86-.05c-.29,0-.58,0-.87,0l-.38,0a.63.63,0,0,0-.57.67.53.53,0,0,0,.58.53h0l.36,0c.29,0,.57,0,.86.05s.58,0,.87,0l.38,0a.63.63,0,0,0,.57-.67A.53.53,0,0,0,39.8,49.5Z"/><path class="cls-1" d="M44,50.43h0l.1.09a.54.54,0,0,0,.56-.57.61.61,0,0,0-.66-.63,5.75,5.75,0,0,0-.94.11,4.52,4.52,0,0,1-.9.11v.1h0l-.1-.1a.55.55,0,0,0-.56.57.58.58,0,0,0,.58.63h.08a4.83,4.83,0,0,0,.94-.11,5.4,5.4,0,0,1,.9-.11Z"/><path class="cls-1" d="M45.9,50.18H46A2.51,2.51,0,0,0,48,49a.57.57,0,0,0,0-.58.67.67,0,0,0-.56-.32.54.54,0,0,0-.49.29,1.25,1.25,0,0,1-1,.64.61.61,0,0,0-.57.66A.52.52,0,0,0,45.9,50.18Z"/><path class="cls-1" d="M47.57,46.74a.64.64,0,0,0,.66-.56l.15-1.37a.48.48,0,0,0-.12-.41.53.53,0,0,0-.42-.18.64.64,0,0,0-.66.57L47,46.15a.51.51,0,0,0,.12.42A.56.56,0,0,0,47.57,46.74Z"/><path class="cls-1" d="M51.3,32.65a3.37,3.37,0,0,1,.28,1.25,6.21,6.21,0,0,0,.08.64.51.51,0,0,0,.52.44.68.68,0,0,0,.52-.24.6.6,0,0,0,.12-.5c0-.22-.07-.43-.09-.65a3.48,3.48,0,0,0-.66-1.93,2.86,2.86,0,0,0-2.27-.8h-.47a.6.6,0,0,0-.58.64.54.54,0,0,0,.55.56h.11l.49,0A1.46,1.46,0,0,1,51.3,32.65Z"/><path class="cls-1" d="M52,35.73a.59.59,0,0,0-.6.64A.57.57,0,0,0,52,37a.64.64,0,0,0,.41-.14.59.59,0,0,0,.19-.49A.57.57,0,0,0,52,35.73Z"/><path class="cls-1" d="M30.63,6.85a.56.56,0,0,0-.49-.27.64.64,0,0,0-.57.33.5.5,0,0,0,0,.55Q30.32,8.57,31,9.68a.54.54,0,0,0,.49.29.66.66,0,0,0,.56-.33.53.53,0,0,0,0-.57Q31.35,8,30.63,6.85Z"/><path class="cls-1" d="M32.75,4.8a1.25,1.25,0,0,0-.7.22l.06.09h-.17c-.68.58-.7,1.38-.08,2.31.35.53.9,1.22,1.64,1.22a1.29,1.29,0,0,0,.61-.16,1.22,1.22,0,0,0,.66-.8,2.11,2.11,0,0,0-.34-1.62C34.2,5.68,33.57,4.8,32.75,4.8Zm0,1.73c-.16-.34-.16-.35,0-.48l.09,0c.23,0,.48.42.63.67a1.54,1.54,0,0,1,.22.47.2.2,0,0,1-.12.25.29.29,0,0,1-.18-.07A2.44,2.44,0,0,1,32.72,6.53Z"/><path class="cls-1" d="M34.69,3.54c-.68.59-.71,1.39-.08,2.32.35.52.89,1.22,1.63,1.22a1.43,1.43,0,0,0,.62-.16,1.3,1.3,0,0,0,.66-.8,2.18,2.18,0,0,0-.34-1.63c-.23-.38-.86-1.26-1.68-1.26a1.24,1.24,0,0,0-.7.23Zm.75.94.09,0c.23,0,.48.42.63.66a1.71,1.71,0,0,1,.22.48.21.21,0,0,1-.12.25.37.37,0,0,1-.18-.07A2.48,2.48,0,0,1,35.47,5C35.3,4.63,35.3,4.61,35.44,4.48Z"/></svg>