<svg xmlns="http://www.w3.org/2000/svg" viewBox="0 0 53.92 74.89"><defs><style>.cls-1{fill:#4e4f4f;}</style></defs><g id="_2" data-name="2"><path class="cls-1" d="M18.13,1.6C11.2-2.91,4.87,9.64,2.82,14.28,1.27,17.78,0,21.6,0,25.47c.07,4.76,1.81,9.33,2.66,14,1.77,9.68-1.11,19.37,2.05,28.87,1,2.91,2.5,5.52,5.65,6.32a7.1,7.1,0,0,0,7.4-2.29.23.23,0,0,0-.32-.32C14.17,74.94,9.17,75,6.64,71,4.66,68,4,63.39,3.72,59.84c-.51-6.55.85-12.89-.23-19.47C2.27,33-.65,26.43,1.67,19,3.49,13.09,9.77-1.83,18,1.87a.16.16,0,0,0,.16-.27Z"/><path class="cls-1" d="M18.2,2C27.66,11.52,25,27.3,21.8,38.84A60.46,60.46,0,0,0,19.61,55.5c0,4.91,1.44,15.37-3.92,18-.25.13,0,.5.22.38,4.66-2.24,4.34-9,4.42-13.31.06-3.6-.07-7.2.16-10.8A57.09,57.09,0,0,1,22.79,38c1.94-6.95,3.14-13.73,2.15-21-.75-5.48-2.26-11.41-6.59-15.18A.11.11,0,0,0,18.2,2Z"/><path class="cls-1" d="M2.21,24.16C.85,29.53,4.2,35.3,5.46,40.4c1.68,6.82.29,13.89.71,20.8a.26.26,0,0,0,.51,0c.56-5.85.87-12.58-.08-18.4a53.86,53.86,0,0,0-2.53-8.59,37.21,37.21,0,0,1-1.77-10,0,0,0,0,0-.09,0Z"/><path class="cls-1" d="M2.31,24.25a1.06,1.06,0,0,1,1.21-.78c.49.12.6.57.83,1a.1.1,0,0,0,.17,0c.3-.63-.42-1.27-1-1.36a1.26,1.26,0,0,0-1.4,1.17c0,.1.17.12.19,0Z"/><path class="cls-1" d="M4,23.59C6.93,29.49,18.39,30,21.5,24c.09-.18-.15-.4-.3-.23C17,28.54,8,29.06,4.19,23.49a.1.1,0,0,0-.17.1Z"/><path class="cls-1" d="M21.14,24.57c.19-.43.51-.88,1.06-.75a.8.8,0,0,1,.52.41c.09.17.07.3.24.41a.14.14,0,0,0,.16,0c.46-.48-.54-1.2-1-1.23A1.08,1.08,0,0,0,21,24.55c0,.07.14.09.17,0Z"/><path class="cls-1" d="M23,24.34c-.56,4.17-2.75,7.63-4.36,11.44a31.69,31.69,0,0,0-2.43,9.87c-.33,4.14.5,8.08.92,12.18A20.47,20.47,0,0,1,17,64.08c-.15.72-2.55,7.18-3.9,5.81-.16-.16-.44,0-.32.24,1,1.76,3.24-1.79,3.65-2.56C18.33,64,18,59.87,17.51,56c-.85-6.24-1.22-12,.88-18.07,1.59-4.6,4.6-8.6,4.87-13.59,0-.15-.24-.19-.26,0Z"/><path class="cls-1" d="M6.4,61.05A11.16,11.16,0,0,0,9.21,69c.81.92,3.46,2.47,4.34,1a.2.2,0,0,0-.28-.27c-2.2,1.27-4.3-1.71-5.14-3.25A15.47,15.47,0,0,1,6.56,61c0-.09-.15-.06-.16,0Z"/><path class="cls-1" d="M8.83,4.81a12.47,12.47,0,0,1,5.54-1.24c1.2,0,5.36-.17,6,1.07.06.11.25,0,.2-.08-.5-1.2-3.45-1.13-4.57-1.2-2.32-.13-5.26,0-7.25,1.35a.06.06,0,0,0,.06.1Z"/><path class="cls-1" d="M6,8.28c4.62-3.38,11.31-3,16.45-1,.15.06.21-.18.07-.24-5-2-12.3-2.66-16.6,1.11,0,.05,0,.13.08.09Z"/><path class="cls-1" d="M4.87,10.53A21.47,21.47,0,0,1,23.05,9.8c.12,0,.21-.17.09-.22a20.43,20.43,0,0,0-18.32.86c-.06,0,0,.11,0,.09Z"/><path class="cls-1" d="M3.67,13.87c6.32-3.91,13.48-3.34,20.26-1,.16.06.24-.21.07-.26C17.26,10.24,9.8,9.66,3.6,13.75c-.07.05,0,.17.07.12Z"/><path class="cls-1" d="M2.16,16.86c7.2-3.8,15-3.72,22.59-1.16.16.05.23-.2.07-.25-7.31-2.61-15.91-2.86-22.69,1.37,0,0,0,.06,0,0Z"/><path class="cls-1" d="M1,20c7.48-4.07,15.82-4.83,23.73-1.48.15.06.28-.15.13-.22A26,26,0,0,0,1,19.9.06.06,0,0,0,1,20Z"/><path class="cls-1" d="M.61,23c7.9-3.78,15.77-5,24.17-1.92.17.06.24-.2.07-.26C17.19,17.9,7.52,18.2.59,22.94c0,0,0,0,0,0Z"/><path class="cls-1" d="M.64,25.58a7.52,7.52,0,0,1,1.65-.64.09.09,0,0,0,0-.18,4.85,4.85,0,0,0-1.67.71c-.06,0,0,.14.07.11Z"/><path class="cls-1" d="M4.5,24.2c4.84-1.56,12.36-2.95,17.15-.51.14.07.27-.14.13-.21-2.33-1.28-5.45-1.16-8-1.12a25,25,0,0,0-9.26,1.76c-.05,0,0,.1,0,.08Z"/><path class="cls-1" d="M23.64,24.71a2.47,2.47,0,0,0,.61.3c.24.12.45.28.68.4a.08.08,0,0,0,.09-.12,2.18,2.18,0,0,0-.73-.45,1.13,1.13,0,0,0-.64-.16s0,0,0,0Z"/><path class="cls-1" d="M6.76,26.28a35.22,35.22,0,0,1,10.6.34.12.12,0,0,0,.06-.23,24,24,0,0,0-10.66-.12s0,0,0,0Z"/><path class="cls-1" d="M2.93,23.69C2.41,30.91,7,37.19,7.65,44.29c0,.09.14.09.13,0C7.72,37.08,2.74,31,3,23.69a0,0,0,1,0-.07,0Z"/><path class="cls-1" d="M7.56,44.8c1.13,5.78.22,11.4.35,17.21A0,0,0,0,0,8,62c.3-5.71,1-11.62-.28-17.25,0-.1-.17-.06-.15,0Z"/><path class="cls-1" d="M8.21,62.9a9.7,9.7,0,0,0,1.85,4.73,4.11,4.11,0,0,0,3.26,1.82c.09,0,.12-.16,0-.17A4.62,4.62,0,0,1,9.7,66.86a12.52,12.52,0,0,1-1.46-4s0,0,0,0Z"/><path class="cls-1" d="M22.6,24.41C21.76,28.77,19.13,32,17.39,36a23.06,23.06,0,0,0-1.67,10.55s.09,0,.08,0A24.31,24.31,0,0,1,19,33.2c1.58-2.78,3.39-5.51,3.65-8.78,0,0-.07-.05-.08,0Z"/><path class="cls-1" d="M15.79,47.36c-.51,2.56.19,4.89.57,7.44a37.66,37.66,0,0,1-.06,10.76s0,0,.05,0a32.82,32.82,0,0,0,.48-8.1c-.23-3.37-1.48-6.72-.92-10.09a.06.06,0,0,0-.12,0Z"/><path class="cls-1" d="M16.06,65.76v.31s0,0,0,0,0-.21,0-.31a0,0,0,0,0,0,0Z"/><path class="cls-1" d="M15.66,66.8a0,0,0,1,0,0,0,0,0,0,1,0,0,0Z"/><path class="cls-1" d="M14.74,68l-.31.21h0l.31-.2Z"/><path class="cls-1" d="M3.07,23.48a1.94,1.94,0,0,0-.36.7,6.49,6.49,0,0,0-.36.92.09.09,0,0,0,.16.07,6,6,0,0,0,.36-.82,2.38,2.38,0,0,0,.28-.84,0,0,0,0,0-.08,0Z"/><path class="cls-1" d="M3,24.5a6.57,6.57,0,0,0-.81,2.07c0,.05.07.05.09,0,.27-.68.45-1.38.79-2,0-.05-.05-.1-.07,0Z"/><path class="cls-1" d="M2.93,26.25a4.41,4.41,0,0,0-.2.71,2.32,2.32,0,0,0-.11.63c0,.05.07.08.09,0A2.57,2.57,0,0,0,2.9,27,5.5,5.5,0,0,0,3,26.26c0-.05-.07-.05-.08,0Z"/><path class="cls-1" d="M3.19,27.16c-.12.3-.24.61-.34.93a2.49,2.49,0,0,0-.22.84,0,0,0,0,0,.09,0A2.57,2.57,0,0,0,3,28.14c.09-.32.17-.64.25-1,0-.05-.07-.07-.09,0Z"/><path class="cls-1" d="M3.34,28.9a2.61,2.61,0,0,0-.32.75,1.49,1.49,0,0,0-.1.72s.07,0,.08,0a3.25,3.25,0,0,0,.18-.68c.07-.26.17-.51.26-.76,0-.06-.07-.09-.1,0Z"/><path class="cls-1" d="M3.45,30a5.42,5.42,0,0,1-.17.8c-.09.26-.26.48-.34.74,0,.06.05.09.09.05a2.13,2.13,0,0,0,.51-1.58c0-.05-.08-.07-.09,0Z"/><path class="cls-1" d="M3.62,30.65a5.6,5.6,0,0,0-.39,1.55.06.06,0,0,0,.12,0,5.52,5.52,0,0,0,.35-1.56,0,0,0,0,0-.08,0Z"/><path class="cls-1" d="M4.18,31.57c-.08.29-.13.59-.21.88a5.68,5.68,0,0,0-.24.77.06.06,0,0,0,.1,0,1.84,1.84,0,0,0,.32-.76,2.84,2.84,0,0,0,.11-.91c0-.05-.07-.06-.08,0Z"/><path class="cls-1" d="M8.16,51.19a3.25,3.25,0,0,1-.39.67l-.45.8a7.63,7.63,0,0,0-.74,1.45.07.07,0,0,0,.11.07A6.9,6.9,0,0,0,7.42,53c.27-.5.59-1,.82-1.52.06-.13.15-.52-.13-.37,0,0,0,0,0,0v0a0,0,0,0,0,.07,0Z"/><path class="cls-1" d="M8.24,52.43A7.14,7.14,0,0,0,7,55.3c0,.07.09.09.13,0a9.79,9.79,0,0,0,.49-1.27c.22-.54.47-1,.7-1.58a.06.06,0,0,0-.11-.06Z"/><path class="cls-1" d="M8.32,53.85a14.65,14.65,0,0,0-1.6,3.31c0,.08.08.11.12.05a15.15,15.15,0,0,0,1.59-3.32c0-.06-.08-.1-.11,0Z"/><path class="cls-1" d="M8.09,55.72C7.6,56.89,7,58,6.48,59.16c0,.06,0,.14.1.08a7.51,7.51,0,0,0,1.6-3.48s-.06-.09-.09,0Z"/><path class="cls-1" d="M8.05,57.77c-.26.67-.47,1.36-.76,2a12.67,12.67,0,0,0-.72,1.54.07.07,0,0,0,.11.06,7.42,7.42,0,0,0,1.45-3.6,0,0,0,0,0-.08,0Z"/><path class="cls-1" d="M8.14,60.2c-.43.95-1,1.85-1.39,2.79a0,0,0,0,0,.07,0,10.4,10.4,0,0,0,1.39-2.79c0-.05-.06-.08-.07,0Z"/><path class="cls-1" d="M8.47,64c-.12.27-.22.54-.32.81a2.8,2.8,0,0,0-.25.84c0,.06.07.07.1,0a2.24,2.24,0,0,0,.28-.76c.09-.29.17-.59.24-.89,0,0,0,0,0,0Z"/><path class="cls-1" d="M9.07,65.45a3.38,3.38,0,0,1-.15,1c-.1.3-.31.57-.38.87,0,0,0,.08.07.06.57-.37.64-1.4.56-2,0-.06-.1,0-.1,0Z"/><path class="cls-1" d="M1.08,29.2a4.17,4.17,0,0,1,.77-.28c.28-.05.54,0,.82,0a.05.05,0,0,0,0-.1A2,2,0,0,0,1,29.11a.05.05,0,0,0,.06.09Z"/><path class="cls-1" d="M21.88,28.75c.44.19.91.31,1.35.51s.75.44,1.14.6c.06,0,.11-.06.06-.1a4.53,4.53,0,0,0-2.52-1.09s-.06.06,0,.08Z"/><path class="cls-1" d="M13.89,70a4.6,4.6,0,0,0-.85.26,2.33,2.33,0,0,1-1.17-.12l0,.26a17.74,17.74,0,0,0,1.78.06,0,0,0,0,0,0-.08,17.92,17.92,0,0,0-1.79-.25c-.16,0-.16.22,0,.27a2.22,2.22,0,0,0,1.25.11c.3,0,.73-.17.86-.48,0,0,0,0,0,0Z"/><path class="cls-1" d="M15.22,67.67a8.08,8.08,0,0,1-1.15.87c-.21.12-1.36.79-1.56.36,0,0-.07,0-.07,0,0,.53.85.14,1.07,0a4.23,4.23,0,0,0,1.74-1.27s0,0,0,0Z"/><path class="cls-1" d="M14.36,69.48a2.53,2.53,0,0,1-1.12.65,7.75,7.75,0,0,1-1.18,0,.07.07,0,0,0,0,.12c.72.5,2-.12,2.4-.74,0,0,0-.09-.07,0Z"/><path class="cls-1" d="M4,52.66c.17,3.3-.29,6.37.31,9.66.55,3,.91,6,2.42,8.71,0,0,.08,0,.06,0a31.64,31.64,0,0,1-2.34-8.71C3.83,59,4.26,56,4,52.66c0,0,0,0,0,0Z"/><path class="cls-1" d="M19.31,52.75c0,4,.14,8-.11,12-.17,2.65-.48,5.26-2.69,7-2.6,2.07-5.76,1.65-8.53.21-.06,0-.12.06-.05.1,3.31,2,7.89,1.83,10.11-1.71,1.24-2,1.22-4.5,1.35-6.75a82.75,82.75,0,0,0,0-10.91s-.06,0-.06,0Z"/><path class="cls-1" d="M23.88,29.83a52.71,52.71,0,0,1-1.36,6.84c0,.09.11.13.14,0a36.32,36.32,0,0,0,1.27-6.87s-.05,0-.05,0Z"/><path class="cls-1" d="M23.4,30c-.88,3.85-1.88,7.67-2.83,11.5-.73,2.94-2,6.1-1.22,9.12,0,0,0,0,0,0-.77-3.63,1-7.87,1.89-11.39.77-3,1.67-6.11,2.17-9.22,0,0,0,0,0,0Z"/><path class="cls-1" d="M11,37.31a42.51,42.51,0,0,0-.06,4.92s0,0,.06,0a42.53,42.53,0,0,0,.1-4.92.05.05,0,0,0-.1,0Z"/><path class="cls-1" d="M10.82,43.15a39.22,39.22,0,0,0,0,4.6s.06,0,.06,0a37.16,37.16,0,0,0,0-4.6,0,0,0,0,0-.07,0Z"/><path class="cls-1" d="M11,48A9.44,9.44,0,0,0,13,47.88a0,0,0,0,0,0-.09A9.46,9.46,0,0,0,11,48s0,0,0,0Z"/><path class="cls-1" d="M11.06,37.07c.37,0,.73,0,1.1,0a4.39,4.39,0,0,0,1,0,.06.06,0,0,0,0-.12,3.85,3.85,0,0,0-1,0c-.37,0-.73,0-1.1,0a.06.06,0,1,0,0,.12Z"/><path class="cls-1" d="M13.64,37c-.32,3.63-.43,7.3-.39,11,0,.06.11.06.11,0,.08-3.66.22-7.3.37-11a0,0,0,1,0-.09,0Z"/><path class="cls-1" d="M11.56,37.08a4.36,4.36,0,0,0-.91,1.48,0,0,0,1,0,0,0c.33-.47.63-1,1-1.43,0-.06-.05-.12-.1-.07Z"/><path class="cls-1" d="M12.18,36.93A5.18,5.18,0,0,0,11,38.79a0,0,0,0,0,0,0c.22-.29.38-.63.58-.94s.41-.62.63-.91c0,0,0-.05,0,0Z"/><path class="cls-1" d="M12.39,37.22a4.78,4.78,0,0,0-.75.93,5,5,0,0,0-.6,1s0,0,0,0c.23-.29.42-.62.63-.93a12.51,12.51,0,0,0,.71-1Z"/><path class="cls-1" d="M13.19,44.54A28.88,28.88,0,0,0,11,47.28s0,0,.05,0a30.49,30.49,0,0,0,2.17-2.75s0,0,0,0Z"/><path class="cls-1" d="M13.12,45.31a16.55,16.55,0,0,0-1.86,2.3s0,.07.06,0a17.06,17.06,0,0,0,1.82-2.32s0,0,0,0Z"/><path class="cls-1" d="M13.2,46.08c-.29.31-.55.64-.82,1a5.13,5.13,0,0,0-.7.91s0,0,.05,0a6.38,6.38,0,0,0,.82-1c.24-.3.48-.6.7-.91,0,0,0-.06-.05,0Z"/><path class="cls-1" d="M13.1,46.92a4.6,4.6,0,0,1-.77.82s0,.07,0,.06a1.57,1.57,0,0,0,.79-.85s0-.07-.05,0Z"/><path class="cls-1" d="M35.79,1C42.72-3.55,49.05,9,51.1,13.64,52.65,17.14,54,21,53.92,24.83c-.07,4.76-1.81,9.33-2.66,14-1.77,9.68,1.11,19.37-2,28.87-1,2.91-2.5,5.52-5.66,6.32a7.09,7.09,0,0,1-7.39-2.29c-.18-.23.09-.52.31-.32,3.28,2.91,8.28,2.93,10.81-1,2-3.07,2.64-7.65,2.92-11.2.51-6.55-.86-12.89.23-19.47,1.22-7.34,4.13-13.94,1.82-21.41C50.43,12.45,44.15-2.47,36,1.23A.16.16,0,0,1,35.79,1Z"/><path class="cls-1" d="M35.72,1.35c-9.46,9.53-6.84,25.31-3.6,36.85a60.85,60.85,0,0,1,2.19,16.66c0,4.91-1.44,15.37,3.92,18,.25.13,0,.5-.22.38-4.66-2.24-4.34-9-4.42-13.31-.06-3.6.07-7.2-.16-10.8a57.09,57.09,0,0,0-2.3-11.85C29.19,30.38,28,23.6,29,16.37,29.73,10.89,31.24,5,35.57,1.19a.11.11,0,0,1,.15.16Z"/><path class="cls-1" d="M51.71,23.52c1.35,5.37-2,11.14-3.25,16.24-1.68,6.82-.29,13.89-.71,20.8a.26.26,0,0,1-.51,0c-.57-5.85-.87-12.58.07-18.4a56,56,0,0,1,2.53-8.59,37.22,37.22,0,0,0,1.78-10,0,0,0,0,1,.09,0Z"/><path class="cls-1" d="M51.61,23.61a1.07,1.07,0,0,0-1.21-.78c-.49.13-.6.57-.83,1a.1.1,0,0,1-.17,0c-.3-.63.42-1.27,1-1.36a1.25,1.25,0,0,1,1.39,1.17c0,.1-.16.12-.18,0Z"/><path class="cls-1" d="M49.9,23c-2.91,5.9-14.37,6.4-17.48.42-.1-.18.15-.4.3-.23,4.18,4.76,13.19,5.28,17-.29a.1.1,0,0,1,.17.1Z"/><path class="cls-1" d="M32.78,23.93c-.19-.43-.51-.88-1.06-.75a.8.8,0,0,0-.52.41c-.09.17-.07.3-.24.41a.14.14,0,0,1-.16,0c-.46-.48.54-1.2,1-1.23A1.08,1.08,0,0,1,33,23.91c0,.07-.14.09-.17,0Z"/><path class="cls-1" d="M30.92,23.7c.56,4.17,2.75,7.63,4.36,11.44A31.69,31.69,0,0,1,37.71,45c.33,4.14-.5,8.08-.92,12.18a20.47,20.47,0,0,0,.13,6.25c.15.72,2.55,7.18,3.9,5.81a.2.2,0,0,1,.32.24c-1,1.76-3.24-1.79-3.65-2.56-1.9-3.53-1.61-7.7-1.08-11.53.85-6.24,1.22-12-.88-18.07-1.59-4.6-4.6-8.6-4.88-13.59,0-.15.25-.19.27,0Z"/><path class="cls-1" d="M47.52,60.41a11.2,11.2,0,0,1-2.81,7.91c-.81.92-3.46,2.47-4.34,1a.2.2,0,0,1,.28-.27c2.2,1.27,4.3-1.71,5.14-3.25a15.47,15.47,0,0,0,1.57-5.37c0-.09.15-.06.16,0Z"/><path class="cls-1" d="M45.09,4.17a12.47,12.47,0,0,0-5.54-1.24c-1.2,0-5.36-.17-6,1.07-.06.11-.26,0-.21-.08.51-1.2,3.46-1.13,4.58-1.2,2.32-.13,5.26,0,7.25,1.35.06,0,0,.14-.06.1Z"/><path class="cls-1" d="M48,7.65c-4.62-3.39-11.31-3-16.45-1-.15.06-.21-.18-.07-.24,5-2.05,12.3-2.66,16.59,1.11.05,0,0,.14-.07.1Z"/><path class="cls-1" d="M49.05,9.89a21.47,21.47,0,0,0-18.18-.73c-.12.05-.21-.16-.09-.22A20.43,20.43,0,0,1,49.1,9.8c.06,0,0,.11-.05.09Z"/><path class="cls-1" d="M50.24,13.23C43.93,9.32,36.77,9.89,30,12.2c-.17.06-.24-.21-.07-.26C36.66,9.6,44.12,9,50.31,13.11a.07.07,0,1,1-.07.12Z"/><path class="cls-1" d="M51.76,16.23c-7.21-3.81-15-3.73-22.59-1.17a.13.13,0,0,1-.07-.25C36.41,12.2,45,12,51.79,16.18a0,0,0,0,1,0,.05Z"/><path class="cls-1" d="M52.9,19.36c-7.47-4.07-15.81-4.83-23.72-1.48-.15.06-.28-.15-.13-.22A26,26,0,0,1,53,19.26c.07,0,0,.13-.06.1Z"/><path class="cls-1" d="M53.31,22.33c-7.9-3.78-15.77-5-24.17-1.92-.17.06-.24-.2-.08-.26,7.67-2.89,17.34-2.59,24.26,2.15,0,0,0,0,0,0Z"/><path class="cls-1" d="M53.28,24.94a7.52,7.52,0,0,0-1.65-.64.09.09,0,0,1,0-.18,4.8,4.8,0,0,1,1.66.71c.07,0,0,.14-.06.11Z"/><path class="cls-1" d="M49.42,23.56c-4.84-1.56-12.37-2.95-17.15-.51a.12.12,0,1,1-.13-.21c2.33-1.28,5.45-1.16,8-1.12a25,25,0,0,1,9.26,1.76c.05,0,0,.1,0,.08Z"/><path class="cls-1" d="M30.28,24.07a2.66,2.66,0,0,1-.61.3c-.24.12-.45.28-.68.4a.08.08,0,0,1-.1-.12,2.33,2.33,0,0,1,.74-.45,1.13,1.13,0,0,1,.64-.16s0,0,0,0Z"/><path class="cls-1" d="M47.16,25.64a35.22,35.22,0,0,0-10.6.34c-.15,0-.21-.19-.07-.23a24,24,0,0,1,10.67-.12Z"/><path class="cls-1" d="M51,23.05c.52,7.22-4.09,13.5-4.72,20.6a.07.07,0,0,1-.14,0c.07-7.21,5-13.31,4.79-20.6a0,0,0,1,1,.07,0Z"/><path class="cls-1" d="M46.36,44.16c-1.13,5.78-.22,11.4-.35,17.21,0,.05-.08.05-.09,0-.29-5.71-1-11.62.28-17.25a.08.08,0,0,1,.16,0Z"/><path class="cls-1" d="M45.71,62.27A9.7,9.7,0,0,1,43.86,67a4.11,4.11,0,0,1-3.26,1.82c-.09,0-.12-.16,0-.17a4.65,4.65,0,0,0,3.64-2.42,12.52,12.52,0,0,0,1.46-4s0,0,0,0Z"/><path class="cls-1" d="M31.32,23.77c.84,4.36,3.47,7.59,5.21,11.56A23.19,23.19,0,0,1,38.2,45.88s-.09,0-.09,0a24.22,24.22,0,0,0-3.22-13.32c-1.58-2.78-3.4-5.51-3.65-8.78,0,0,.07-.05.08,0Z"/><path class="cls-1" d="M38.12,46.72c.52,2.56-.18,4.89-.56,7.44a37.66,37.66,0,0,0,.06,10.76s0,0,0,0a32.35,32.35,0,0,1-.48-8.1c.23-3.37,1.48-6.72.92-10.09,0-.08.1-.11.11,0Z"/><path class="cls-1" d="M37.86,65.12v.31h0c0-.11,0-.21,0-.31a0,0,0,0,1,0,0Z"/><path class="cls-1" d="M38.26,66.16s0,0,0,0a0,0,0,0,1,0,0Z"/><path class="cls-1" d="M39.18,67.36l.31.21h0l-.31-.2Z"/><path class="cls-1" d="M50.85,22.84a1.78,1.78,0,0,1,.35.7,6.55,6.55,0,0,1,.37.92.09.09,0,0,1-.16.07,5,5,0,0,1-.36-.82,2.38,2.38,0,0,1-.28-.84,0,0,0,0,1,.08,0Z"/><path class="cls-1" d="M50.89,23.86a6.31,6.31,0,0,1,.8,2.07c0,.05-.06.05-.08,0-.27-.68-.45-1.37-.79-2,0,0,0-.1.07,0Z"/><path class="cls-1" d="M51,25.61a5.75,5.75,0,0,1,.2.71,2.32,2.32,0,0,1,.11.63c0,.05-.07.08-.09,0a2.57,2.57,0,0,1-.19-.67,5.22,5.22,0,0,1-.11-.69c0-.05.06-.05.08,0Z"/><path class="cls-1" d="M50.72,26.52c.13.31.25.61.35.93a2.75,2.75,0,0,1,.22.84c0,.05-.07.06-.1,0a2.81,2.81,0,0,1-.3-.81c-.09-.32-.18-.64-.25-1a0,0,0,0,1,.08,0Z"/><path class="cls-1" d="M50.58,28.26a2.92,2.92,0,0,1,.32.75,1.49,1.49,0,0,1,.1.72.06.06,0,0,1-.09,0,4,4,0,0,1-.17-.68c-.07-.26-.17-.51-.26-.76,0-.06.07-.09.1,0Z"/><path class="cls-1" d="M50.47,29.4a5.42,5.42,0,0,0,.17.8c.09.26.25.48.34.74a.06.06,0,0,1-.09.06,2.17,2.17,0,0,1-.51-1.59c0-.05.08-.07.09,0Z"/><path class="cls-1" d="M50.29,30a5.29,5.29,0,0,1,.4,1.55.06.06,0,0,1-.12,0A5.52,5.52,0,0,1,50.22,30c0-.05.06-.07.07,0Z"/><path class="cls-1" d="M49.74,30.94c.08.29.13.58.21.87a4.5,4.5,0,0,1,.23.77c0,.05-.06.07-.09,0a1.72,1.72,0,0,1-.32-.76,2.84,2.84,0,0,1-.11-.91,0,0,0,0,1,.08,0Z"/><path class="cls-1" d="M45.76,50.55a2.85,2.85,0,0,0,.39.67l.45.8a7.63,7.63,0,0,1,.74,1.45.07.07,0,0,1-.11.07,6.9,6.9,0,0,1-.73-1.19c-.27-.5-.59-1-.83-1.52-.05-.13-.14-.52.14-.37,0,0,0,0,0,0v0a0,0,0,0,1-.07,0Z"/><path class="cls-1" d="M45.67,51.79a7.16,7.16,0,0,1,1.22,2.87c0,.07-.1.09-.13,0a9.79,9.79,0,0,1-.49-1.27c-.22-.54-.47-1-.7-1.58a.06.06,0,1,1,.1-.06Z"/><path class="cls-1" d="M45.6,53.21a14.65,14.65,0,0,1,1.6,3.31c0,.08-.08.11-.12,0a15.15,15.15,0,0,1-1.59-3.32c0-.06.07-.09.11,0Z"/><path class="cls-1" d="M45.82,55.08c.5,1.17,1.12,2.28,1.62,3.44,0,.06,0,.14-.1.08a7.46,7.46,0,0,1-1.6-3.48s.06-.09.08,0Z"/><path class="cls-1" d="M45.87,57.13c.25.67.47,1.36.76,2a13.41,13.41,0,0,1,.72,1.54.07.07,0,0,1-.11.06,7.23,7.23,0,0,1-1.45-3.6,0,0,0,0,1,.08,0Z"/><path class="cls-1" d="M45.78,59.56c.43.95.95,1.85,1.39,2.79,0,0,0,.09-.08,0a10.68,10.68,0,0,1-1.38-2.79c0-.05,0-.08.07,0Z"/><path class="cls-1" d="M45.45,63.36c.12.27.22.54.32.81A2.8,2.8,0,0,1,46,65c0,.06-.08.07-.11,0a2.46,2.46,0,0,1-.27-.76c-.09-.29-.17-.59-.24-.89,0,0,0-.05.05,0Z"/><path class="cls-1" d="M44.85,64.81a3.38,3.38,0,0,0,.15,1c.1.3.31.57.38.87a.06.06,0,0,1-.08.06c-.56-.37-.63-1.4-.55-2,0-.06.1,0,.1,0Z"/><path class="cls-1" d="M52.84,28.56a4.17,4.17,0,0,0-.77-.28c-.28-.05-.54,0-.82,0a.05.05,0,0,1,0-.1,2,2,0,0,1,1.65.33.05.05,0,1,1,0,.09Z"/><path class="cls-1" d="M32,28.11c-.44.19-.9.31-1.34.51s-.75.44-1.14.6a.06.06,0,0,1-.07-.1A4.59,4.59,0,0,1,32,28a0,0,0,0,1,0,.08Z"/><path class="cls-1" d="M40,69.34a4.29,4.29,0,0,1,.84.26,2.36,2.36,0,0,0,1.18-.12l0,.26a17.74,17.74,0,0,1-1.78.06c-.05,0-.06-.07,0-.08a18.12,18.12,0,0,1,1.8-.25c.16,0,.16.22,0,.27a2.22,2.22,0,0,1-1.25.11c-.3,0-.74-.17-.86-.48,0,0,0,0,0,0Z"/><path class="cls-1" d="M38.7,67a8.08,8.08,0,0,0,1.15.87c.21.12,1.36.79,1.55.36a0,0,0,0,1,.08,0c0,.53-.85.14-1.07,0a4.23,4.23,0,0,1-1.74-1.27s0,0,0,0Z"/><path class="cls-1" d="M39.56,68.84a2.53,2.53,0,0,0,1.12.65,7.64,7.64,0,0,0,1.17,0,.07.07,0,0,1,0,.12c-.72.5-2-.12-2.4-.74,0,0,0-.09.07,0Z"/><path class="cls-1" d="M50,52c-.17,3.29.29,6.36-.31,9.65-.55,3-.91,6-2.42,8.71,0,0-.08,0-.06,0,1.36-2.74,1.8-5.73,2.33-8.71.59-3.31.16-6.33.41-9.61,0,0,.05,0,.05,0Z"/><path class="cls-1" d="M34.61,52.11c0,4-.14,8,.11,12,.16,2.65.48,5.26,2.69,7,2.59,2.07,5.76,1.65,8.52.21a.06.06,0,1,1,.06.1c-3.31,2-7.89,1.83-10.11-1.71-1.25-2-1.22-4.5-1.35-6.75a81.06,81.06,0,0,1,0-10.91s.06,0,.06,0Z"/><path class="cls-1" d="M30,29.19A52.71,52.71,0,0,0,31.4,36a.07.07,0,0,1-.14,0A36.34,36.34,0,0,1,30,29.2a0,0,0,0,1,.06,0Z"/><path class="cls-1" d="M30.52,29.31c.88,3.85,1.87,7.67,2.83,11.5.73,2.94,2,6.1,1.22,9.12,0,0,0,0,0,0,.76-3.63-1-7.87-1.89-11.39-.77-3-1.67-6.11-2.18-9.22a0,0,0,0,1,.05,0Z"/><path class="cls-1" d="M43,36.67A42.51,42.51,0,0,1,43,41.59s-.05,0-.06,0a42.53,42.53,0,0,1-.1-4.92.05.05,0,0,1,.1,0Z"/><path class="cls-1" d="M43.1,42.51a37.16,37.16,0,0,1,0,4.6s-.05,0-.06,0a39.22,39.22,0,0,1,0-4.6,0,0,0,0,1,.07,0Z"/><path class="cls-1" d="M43,47.39a9.4,9.4,0,0,1-2.06-.15,0,0,0,0,1,0-.09,9.53,9.53,0,0,1,2,.22s0,0,0,0Z"/><path class="cls-1" d="M42.86,36.43c-.37,0-.73,0-1.1,0a4.39,4.39,0,0,1-1,0,.06.06,0,0,1,0-.12,3.85,3.85,0,0,1,1,0c.37,0,.73,0,1.1,0a.06.06,0,1,1,0,.12Z"/><path class="cls-1" d="M40.28,36.37c.31,3.63.43,7.3.39,11a.06.06,0,0,1-.11,0c-.08-3.66-.22-7.3-.37-11a0,0,0,0,1,.09,0Z"/><path class="cls-1" d="M42.35,36.44a4.38,4.38,0,0,1,.92,1.48s0,0-.06,0c-.32-.48-.62-1-1-1.44a.06.06,0,0,1,.09-.07Z"/><path class="cls-1" d="M41.73,36.29A5.35,5.35,0,0,1,43,38.15a0,0,0,0,1-.05,0c-.22-.29-.38-.63-.58-.94s-.41-.61-.63-.91c0,0,0,0,0,0Z"/><path class="cls-1" d="M41.53,36.58a5.18,5.18,0,0,1,.75.93,5.55,5.55,0,0,1,.6,1s0,0,0,0c-.23-.29-.42-.62-.63-.93s-.51-.66-.71-1l0,0Z"/><path class="cls-1" d="M40.73,43.9a28.88,28.88,0,0,1,2.19,2.74s0,0-.05,0a27.61,27.61,0,0,1-2.17-2.75s0,0,0,0Z"/><path class="cls-1" d="M40.8,44.67A17.16,17.16,0,0,1,42.66,47s0,.07-.06,0a17.06,17.06,0,0,1-1.82-2.32s0,0,0,0Z"/><path class="cls-1" d="M40.72,45.44c.29.31.55.64.82,1a4.64,4.64,0,0,1,.69.91s0,0,0,0a6.38,6.38,0,0,1-.82-1c-.24-.3-.48-.59-.7-.91,0,0,0-.06,0,0Z"/><path class="cls-1" d="M40.82,46.28a4.26,4.26,0,0,0,.77.82,0,0,0,0,1,0,.06,1.64,1.64,0,0,1-.79-.85s0-.07.06,0Z"/></g></svg>