<svg id="Layer_1" data-name="Layer 1" xmlns="http://www.w3.org/2000/svg" viewBox="0 0 527.05 426.42"><defs><style>.cls-1{fill:#005981;}</style></defs><path class="cls-1" d="M135.21,130.1V119.7q-40.49,22.77-83.77,22.77-23.05,0-51.44-9.28v12.09Q0,174,11.1,184.21t42,10.26q43,0,62.54-15.32T135.21,130.1Z"/><path class="cls-1" d="M385.06,9.84A740,740,0,0,0,262.19,0,713.35,713.35,0,0,0,142.26,9.84,609.07,609.07,0,0,0,31.05,39.64,266.23,266.23,0,0,0,0,126.21a140.66,140.66,0,0,0,49.75,9.28q42.16,0,85.46-25.58V104q0-41.6,130.43-41.6,126.21,0,126.21,41.6v5.91q45.25,21.65,86.29,21.64a231.25,231.25,0,0,0,48.91-5.34q-8.14-48.34-30.92-86.57A585.92,585.92,0,0,0,385.06,9.84Z"/><path class="cls-1" d="M391.85,117.73v12.65q0,30.93,20.38,45.82t62.54,14.9q30.08,0,41.18-9.7t11.1-35.84V132.07a165.82,165.82,0,0,1-49.19,7A179.52,179.52,0,0,1,391.85,117.73Z"/><path class="cls-1" d="M469.91,355.23s-1.4-27.05-4.78-38-18.66-37.6-18.66-37.6c-1.49-2.59-4-6.78-5.59-9.3L372.44,161.17a22.24,22.24,0,0,1-2.88-10V109.43a5.45,5.45,0,0,0-5.43-5.43H312.58a5.45,5.45,0,0,0-5.42,5.43v27.1a5.45,5.45,0,0,1-5.43,5.42H225.32a5.44,5.44,0,0,1-5.42-5.42v-27.1a5.45,5.45,0,0,0-5.43-5.43H162.92a5.45,5.45,0,0,0-5.42,5.43v41.71a22.25,22.25,0,0,1-2.89,10L86.17,270.32c-1.59,2.52-4.1,6.71-5.58,9.3,0,0-15.29,26.63-18.66,37.6s-4.78,38-4.78,38c-.16,3-.29,7.86-.29,10.84V421a5.44,5.44,0,0,0,5.43,5.43H464.76a5.44,5.44,0,0,0,5.43-5.43V366.07C470.19,363.09,470.06,358.2,469.91,355.23ZM221.58,289.16a5.44,5.44,0,0,1-5.42,5.43H192.44a5.44,5.44,0,0,1-5.43-5.43V275.84a5.44,5.44,0,0,1,5.43-5.43h23.72a5.44,5.44,0,0,1,5.42,5.43Zm0-41.6a5.44,5.44,0,0,1-5.42,5.42H192.44a5.44,5.44,0,0,1-5.43-5.42V234.24a5.44,5.44,0,0,1,5.43-5.43h23.72a5.44,5.44,0,0,1,5.42,5.43Zm0-41.6a5.44,5.44,0,0,1-5.42,5.42H192.44A5.44,5.44,0,0,1,187,206V192.64a5.44,5.44,0,0,1,5.43-5.43h23.72a5.44,5.44,0,0,1,5.42,5.43ZM281,289.16a5.44,5.44,0,0,1-5.42,5.43H251.46a5.44,5.44,0,0,1-5.42-5.43V275.84a5.44,5.44,0,0,1,5.42-5.43h24.13a5.44,5.44,0,0,1,5.42,5.43Zm0-41.6a5.44,5.44,0,0,1-5.42,5.42H251.46a5.44,5.44,0,0,1-5.42-5.42V234.24a5.44,5.44,0,0,1,5.42-5.43h24.13a5.44,5.44,0,0,1,5.42,5.43Zm0-41.6a5.44,5.44,0,0,1-5.42,5.42H251.46A5.44,5.44,0,0,1,246,206V192.64a5.44,5.44,0,0,1,5.42-5.43h24.13a5.44,5.44,0,0,1,5.42,5.43Zm59,83.2a5.44,5.44,0,0,1-5.42,5.43H310.9a5.44,5.44,0,0,1-5.43-5.43V275.84a5.44,5.44,0,0,1,5.43-5.43h23.72a5.44,5.44,0,0,1,5.42,5.43Zm0-41.6a5.44,5.44,0,0,1-5.42,5.42H310.9a5.44,5.44,0,0,1-5.43-5.42V234.24a5.44,5.44,0,0,1,5.43-5.43h23.72a5.44,5.44,0,0,1,5.42,5.43Zm0-41.6a5.44,5.44,0,0,1-5.42,5.42H310.9a5.44,5.44,0,0,1-5.43-5.42V192.64a5.44,5.44,0,0,1,5.43-5.43h23.72a5.44,5.44,0,0,1,5.42,5.43Z"/></svg>