<svg id="Layer_1" data-name="Layer 1" xmlns="http://www.w3.org/2000/svg" viewBox="0 0 687.48 314.67"><defs><style>.cls-1,.cls-2{fill:none;stroke:#005c85;stroke-linecap:round;stroke-width:3px;}.cls-1{stroke-miterlimit:10;}.cls-2{stroke-linejoin:round;}.cls-3{fill:#005c85;}</style></defs><circle class="cls-1" cx="458.42" cy="114.91" r="113.4"/><path class="cls-2" d="M420.67,132.93a1.83,1.83,0,0,0-.39,2.55h0a3,3,0,0,0,4.23.64,4.85,4.85,0,0,0,1-6.78,7.88,7.88,0,0,0-11-1.68,12.73,12.73,0,0,0-2.72,17.79,20.59,20.59,0,0,0,28.79,4.4,33.33,33.33,0,0,0,7.13-46.58"/><path class="cls-2" d="M493.25,137.93a1.83,1.83,0,0,0,2.4-.94h0a3,3,0,0,0-1.56-4,4.83,4.83,0,0,0-6.38,2.49,7.87,7.87,0,0,0,4,10.37,12.72,12.72,0,0,0,16.76-6.54,20.58,20.58,0,0,0-10.58-27.13A33.32,33.32,0,0,0,454,129.32"/><path class="cls-2" d="M460.37,72.34a1.83,1.83,0,0,0-2-1.62h0a3,3,0,0,0-2.67,3.34A4.84,4.84,0,0,0,461,78.35a7.87,7.87,0,0,0,7-8.69,12.73,12.73,0,0,0-14-11.25,20.6,20.6,0,0,0-18.21,22.74,33.31,33.31,0,0,0,36.78,29.45l5.63-.54"/><circle class="cls-2" cx="229.46" cy="114.9" r="113.4"/><path class="cls-2" d="M207.16,113.34a23.22,23.22,0,0,0-4,5.84l0,0a14.62,14.62,0,0,0-1.5,6.26,16.06,16.06,0,0,0,1.52,6.6,22.92,22.92,0,0,0,4,5.83A40.27,40.27,0,0,0,211,141.2h0c9.39,8.05,24.79,11.75,35.3,8.43,7.12-2.25,11-6.1,11-10.85s-3.92-8.59-11-10.84c-10.14-3.21-24.85.13-34.3,7.61"/><path class="cls-2" d="M207.14,87.1a27.52,27.52,0,0,0-4,5.78,14,14,0,0,0-1.61,6.37,15.24,15.24,0,0,0,1.61,6.57,23.79,23.79,0,0,0,4.09,5.92,42.12,42.12,0,0,0,3.77,3.19h0c9.39,8,24.79,11.75,35.3,8.42,7.12-2.25,11-6.1,11-10.84s-3.92-8.6-11-10.85c-10.16-3.21-24.89.14-34.34,7.64"/><path class="cls-2" d="M207.19,139.73a22.77,22.77,0,0,0-4,5.87,14.31,14.31,0,0,0-1.35,6,12.92,12.92,0,0,0,1,4.9c1.74,4.27,5.82,7.7,10.91,9.17l.33.1h0l.66.19"/><path class="cls-2" d="M213.86,59.83h0l-.18,0c-5.09,1.47-9.17,4.9-10.91,9.17-.17.41-.32.85-.45,1.28a13,13,0,0,0-.51,3.48,15.48,15.48,0,0,0,.48,3.33,16.14,16.14,0,0,0,.86,2.38,23.58,23.58,0,0,0,4.48,6.34c1.06,1,2.25,1.9,3.39,2.78h0c9.39,8,24.79,11.75,35.3,8.43,7.12-2.26,11-6.11,11-10.85s-3.92-8.59-11-10.84c-10.18-3.22-24.94.14-34.39,7.67"/><path class="cls-1" d="M654.88,235.58a113.39,113.39,0,0,0-195.69,77l226.78.54A113,113,0,0,0,654.88,235.58Z"/><path class="cls-3" d="M544,294.75l-9.39,17.34H517.78a1.5,1.5,0,0,0-1.5,1.5,1.36,1.36,0,0,0,0,.29h20.74l6.22-11.48,3.62,11.48H550Z"/><path class="cls-3" d="M629.55,313.58a1.5,1.5,0,0,0-1.5-1.49h0l-18.89,0-.7,1.75h21.07A1.39,1.39,0,0,0,629.55,313.58Z"/><polygon class="cls-3" points="568.34 264.41 553.35 313.88 556.48 313.88 567.66 276.98 574.65 313.88 577.71 313.88 568.34 264.41"/><polygon class="cls-3" points="597.46 300.36 593.9 313.88 597 313.88 598.11 309.66 599.89 313.88 603.14 313.88 597.46 300.36"/><path class="cls-1" d="M343.52,151.1A161.77,161.77,0,0,0,181.75,312l323.55.77A161.78,161.78,0,0,0,343.52,151.1Z"/><path class="cls-1" d="M197.21,235.52a113.39,113.39,0,0,0-195.68,76l226.76.54A113,113,0,0,0,197.21,235.52Z"/><polygon class="cls-2" points="158.33 304.38 152.71 304.38 152.71 311.9 158.33 311.91 158.33 304.38"/><polyline class="cls-2" points="71.48 312.8 71.48 291.32 97.93 291.32"/><polyline class="cls-2" points="135.79 291.32 149.03 291.32 149.03 310.81"/><polygon class="cls-2" points="127.69 305.45 116.18 305.45 133.15 280.64 117.44 280.64 96.78 311.77 121.42 311.82 127.69 305.45"/></svg>