<svg id="Layer_1" data-name="Layer 1" xmlns="http://www.w3.org/2000/svg" viewBox="0 0 419.68 361.36"><defs><style>.cls-1{fill:#fff;}</style></defs><path class="cls-1" d="M227.28,232.9s31.65-.88,48.82-18.41c0,0,21.66,10.25,40.78,12.51,0,0,46.71,11.51,55.34,46.13,0,0,6.25,8.52-4.66,30.75,0,0-4,5.11-1.52,13.65-2.32-8.18-23,5.54-26.21,8.23-9.55,7.46-22.24,10.7-34.18,10.07a68,68,0,0,1-30.2-9.43s-25.66-16.3-35.12-55C240.33,271.4,233.08,248.26,227.28,232.9Z"/><path class="cls-1" d="M220.91,233.87s30.36,61.18,15.73,95.49c0,0-8.3,25.73-42,32,0,0-66.11-29-29.78-93.93,0,0,20.81-1.11,43.69-35.45C208.56,232,211,235,220.91,233.87Z"/><path class="cls-1" d="M45.75,273.85s47.15,24.3,99,5.71c0,0-62.43,68.61-144.74,19.58a30.47,30.47,0,0,0,17.1-6.61S27.77,277.54,45.75,273.85Z"/><path class="cls-1" d="M204.24,223.72s-14.09,35-51.89,39.37c0,0-11.46,16.67-66,16.1,0,0-37.26-3.45-46.39-26.23,0,0,13.5,2.08,22.26-1.65,0,0-20.4-18.81,8.51-27,0,0,21.14-6.9,40.31-.16,0,0,37.31,10.74,60-5.41C171,218.7,184.3,226.44,204.24,223.72Z"/><path class="cls-1" d="M191.21,176.46s-8.88,25.62,13,47.26c0,0,51.49,21.09,100.67-50.73a43.81,43.81,0,0,0,7.89-20.68c1.8-18.36-20.44-30.59-37-27.73,0,0-1.07,2.89-1.07,2.92.69-1.88-17.21,3-18.94,3.82A214.83,214.83,0,0,0,234,141.17C217.9,149.54,200.69,160.42,191.21,176.46Z"/><path class="cls-1" d="M291.21,201.7s14.66-8.41,22.74-31.14c0,0,22.71-7.48,31.59-36.79,0,0,15.76-12.66,36.15-18.88,0,0,8.95-1.92,19.68-12.16,0,0,24.67-22.76,16.73,8.8,0,0-23.72,77.53-90.78,88.1C327.32,199.63,307.88,203.63,291.21,201.7Z"/><path class="cls-1" d="M208,148.83s-21.21,15.09-24.65,29.65c0,0-5.23,22.42,4.65,35.9,0,0-40.28,4-71.53-59.28,0,0-40.53-60.81,17.92-72.69,4.93-1,7.46-3.64,13-3.33C162.14,80.22,174.59,92.73,184,103a116.26,116.26,0,0,1,16.12,21.38C201.62,127,211.67,146.26,208,148.83Z"/><path class="cls-1" d="M298.19,122.3s28.9,4.38,20.29,36.39c0,0,20.16-4.46,25-36.47,0,0,25.61-10.64,20.89-74.87C364.33,47.35,327.78,84.63,298.19,122.3Z"/><path class="cls-1" d="M97.67,96.18s22.2-38.13,65.58-17.7c0,0,26.68,11,48.94,42.7,0,0-5.61-78.82-65.57-106.83,0,0-32.35-19.94-42.17-6.35,0,0-9.72,4.17-11,32.93C93.47,40.93,84.1,70.06,97.67,96.18Z"/><path class="cls-1" d="M222.47,140.35s34.64-21.14,60.18-23c0,0,7.25-47.86-33.64-69.19,0,0-14.74-6.6-17.58,33.18C231.43,81.3,225.94,130.78,222.47,140.35Z"/><path class="cls-1" d="M278.14,65.17s13.58,12.75,13.14,52.94a329.39,329.39,0,0,0,37.51-45.28S333.59,21.27,311,.29c0,0-8.06-4.36-13.75,20.58C297.23,20.87,289.06,52.35,278.14,65.17Z"/><path class="cls-1" d="M273.78,59.5S288,40.2,291,16.13c0,0-46.6-16.46-81.25,58.72,0,0,9.51,20.38,10.26,44.36,0,0,.88-71.55,21.59-76C241.62,43.24,251,30.81,273.78,59.5Z"/><path class="cls-1" d="M91.42,98.58s.47,51.93,28.65,79.67-.41,2.68-.41,2.68-82-20.67-68.85-107.35c0,0-.79-13.54,14.1,2.19C64.91,75.77,78.73,98.48,91.42,98.58Z"/><path class="cls-1" d="M44.57,78.38s-12.25,94,88.14,112.2c0,0,17.09,16.45,30,24.69,0,0-123.44-3.52-131.88-63.5C30.83,151.77-41.19,53.46,44.57,78.38Z"/></svg>