<svg id="Layer_1" data-name="Layer 1" xmlns="http://www.w3.org/2000/svg" viewBox="0 0 687.46 316.45"><defs><style>.cls-1,.cls-2{fill:none;stroke:#005c85;stroke-linecap:round;stroke-width:3px;}.cls-1{stroke-miterlimit:10;}.cls-2{stroke-linejoin:round;}.cls-3{fill:#005c85;}</style></defs><circle class="cls-1" cx="228.74" cy="201.55" r="113.4"/><circle class="cls-2" cx="228.74" cy="201.55" r="32"/><line class="cls-2" x1="213.86" y1="201.36" x2="230.73" y2="171.42"/><line class="cls-2" x1="254.79" y1="220.04" x2="236.71" y2="188.95"/><line class="cls-2" x1="221.34" y1="188.2" x2="257.18" y2="188.2"/><line class="cls-2" x1="243.91" y1="201.78" x2="225.86" y2="233.02"/><line class="cls-2" x1="203.22" y1="183.83" x2="220.92" y2="214.48"/><line class="cls-2" x1="235.73" y1="214.54" x2="200.27" y2="214.54"/><path class="cls-2" d="M285.89,201.55s-18.65,31.78-57.15,31.78-57.15-31.78-57.15-31.78h0s18.64-31.78,57.15-31.78,57.15,31.78,57.15,31.78Z"/><path class="cls-1" d="M459.18,3.32a113,113,0,0,0,31.08,79,113.41,113.41,0,0,0,160.32,4.29A113.06,113.06,0,0,0,686,3.86Z"/><path class="cls-3" d="M517.77,5.77h18.62l.66-1.2H516.3A1.5,1.5,0,0,0,517.77,5.77Z"/><polygon class="cls-3" points="551.72 9.92 550.03 4.57 546.88 4.57 551.77 20.08 556.47 4.57 553.34 4.57 551.72 9.92"/><path class="cls-3" d="M608.44,4.57,605.86,11l-2.72-6.47h-3.26l6,14.39,5.25-13.15,16.86,0a1.49,1.49,0,0,0,1.47-1.2Z"/><polygon class="cls-3" points="584.48 40.37 577.7 4.57 574.64 4.57 584 53.98 596.99 4.57 593.89 4.57 584.48 40.37"/><circle class="cls-1" cx="457.19" cy="201.55" r="113.4"/><path class="cls-2" d="M477.86,203.56c-14.56,9.95-20.14,35.66-20.14,35.66s21.75,7,36.31-2.91c11.77-8,14.86-26.73,20.53-35.93C505,201.61,489.63,195.52,477.86,203.56Z"/><path class="cls-2" d="M464.57,197c-10.22,15.75-7,42-7,42s22.38-3.29,32.6-19c8.25-12.73,5-31.38,7.28-42.44C489,183,472.82,184.26,464.57,197Z"/><path class="cls-2" d="M399.83,200.38c5.67,9.2,8.76,27.89,20.53,35.93,14.56,9.95,36.31,2.91,36.31,2.91s-5.58-25.71-20.14-35.66C424.76,195.52,409.43,201.61,399.83,200.38Z"/><path class="cls-2" d="M417,177.53c2.24,11.06-1,29.71,7.28,42.44,10.22,15.75,32.6,19,32.6,19s3.21-26.27-7-42C441.57,184.26,425.43,183,417,177.53Z"/><path class="cls-2" d="M441.1,200.39c0,19.81,16.1,38.4,16.1,38.4s16.09-18.6,16.09-38.41c0-16-12.18-28.54-16.1-38.92C453.27,171.84,441.1,184.37,441.1,200.39Z"/><path class="cls-1" d="M181.74,2.66c0,.3,0,.6,0,.91a161.78,161.78,0,0,0,323.56,0V3.43Z"/><path class="cls-1" d="M1.52,2.23a113,113,0,0,0,31.07,80,113.41,113.41,0,0,0,160.32,4.3A113.11,113.11,0,0,0,228.28,2.77Z"/><polygon class="cls-2" points="152.7 2.59 152.7 11.93 158.32 11.93 158.32 2.6 152.7 2.59"/><polyline class="cls-2" points="83.77 24.99 71.47 24.99 71.47 3.49"/><polyline class="cls-2" points="149.03 1.5 149.03 24.99 111.77 24.99"/><polygon class="cls-2" points="121.41 2.51 96.77 2.45 95.13 4.93 103.18 4.93 87.36 37.12 121.41 2.51"/></svg>