<?xml version="1.0" encoding="UTF-8"?><svg id="a" xmlns="http://www.w3.org/2000/svg" viewBox="0 0 566.93 340.16"><defs><style>.b{fill:#006681;}.c{fill:#ceab5b;}</style></defs><path class="c" d="M382.41,232.74c-9.25,.13-12.01,12.79-3.55,16.55,3.07,1.26,6.63,.78,9.72-.2,7.25-2.38,12.26-9.87,11.58-17.47-.53-13.85-13.32-25.23-27.15-24.17-1.11,.03-2.39,.14-3.5,.27-19.48,2.05-35.98,18.66-37.65,38.08-.7,8.09,.43,16.31,2.75,24.07,8.2,28.11,35.78,48.8,65.12,48.76,6.23,.04,12.57-.46,18.72-1.43,47.77-7.23,87.22-46.7,93.82-94.55,2.48-17.8,.84-36.03-2.67-53.58-16.74-82.18-90.72-143.75-174.66-145.76-65.51-1.5-130.45,18.69-183.5,57.1-56.35,40.44-98.07,100.72-115.68,167.76-6.38,23.95-9.7,48.65-10.18,73.44-.91-51.46,11.8-102.97,36.7-148.1,21.7-39.69,52.7-74.42,89.51-100.81,51.22-36.73,112.94-56.71,176-57.11,61.84-1.21,122.86,29.88,158.33,80.43,32.58,45.6,48.96,116.52,19.98,167.4-19.58,35.64-58.32,59.61-99.04,61.05-34.86,2.42-67.29-19.61-76.85-53.31-2.34-8.34-3.37-17.16-2.45-25.79,2.21-21.05,20.37-38.71,41.43-40.45,1.18-.11,2.54-.2,3.73-.2,11.42-.55,22.64,6.6,26.9,17.18,3.99,9.39,2.44,20.99-6.94,26.47-5.4,3.2-14.17,4.36-18.1-1.58-4.09-5.82,.54-14.3,7.62-14.02Z"/><g><path class="c" d="M169.73,177.67c-.88-.46-1.56-1.09-2.04-1.91-.48-.82-.72-1.77-.72-2.84v-5.71c0-1.08,.24-2.03,.72-2.84,.48-.82,1.16-1.45,2.04-1.9s1.9-.67,3.05-.67,2.15,.22,3.03,.65c.88,.43,1.56,1.04,2.04,1.83,.48,.79,.72,1.7,.72,2.73,0,.08-.03,.14-.08,.2s-.12,.08-.2,.08l-2.13,.12c-.19,0-.28-.08-.28-.25,0-.91-.28-1.64-.84-2.2-.56-.56-1.31-.83-2.25-.83s-1.7,.28-2.27,.83-.86,1.29-.86,2.2v5.9c0,.89,.29,1.62,.86,2.17,.57,.55,1.33,.83,2.27,.83s1.69-.27,2.25-.82c.56-.55,.84-1.28,.84-2.19,0-.17,.09-.25,.28-.25l2.13,.09c.08,0,.14,.02,.2,.07,.05,.05,.08,.1,.08,.16,0,1.05-.24,1.97-.72,2.76s-1.16,1.41-2.04,1.84c-.88,.43-1.89,.65-3.03,.65s-2.17-.23-3.05-.68Z"/><path class="c" d="M194.97,164.21c-.05,.05-.12,.08-.2,.08h-7.89c-.08,0-.12,.04-.12,.12v4.33c0,.08,.04,.12,.12,.12h5.3c.08,0,.14,.03,.2,.08,.05,.05,.08,.12,.08,.2v1.76c0,.08-.03,.14-.08,.2-.05,.05-.12,.08-.2,.08h-5.3c-.08,0-.12,.04-.12,.12v4.46c0,.08,.04,.12,.12,.12h7.89c.08,0,.14,.03,.2,.08s.08,.12,.08,.2v1.76c0,.08-.03,.14-.08,.2-.05,.05-.12,.08-.2,.08h-10.41c-.08,0-.14-.03-.2-.08-.05-.05-.08-.12-.08-.2v-15.63c0-.08,.03-.14,.08-.2,.05-.05,.12-.08,.2-.08h10.41c.08,0,.14,.03,.2,.08,.05,.05,.08,.12,.08,.2v1.76c0,.08-.03,.14-.08,.2Z"/><path class="c" d="M209.93,162.06c.05-.05,.12-.08,.2-.08h2.13c.08,0,.14,.03,.2,.08,.05,.05,.08,.12,.08,.2v15.63c0,.08-.03,.14-.08,.2-.05,.05-.12,.08-.2,.08h-2.06c-.15,0-.26-.06-.32-.18l-6.66-10.92s-.06-.07-.09-.06c-.03,0-.05,.04-.05,.1l.05,10.78c0,.08-.03,.14-.08,.2-.05,.05-.12,.08-.2,.08h-2.13c-.08,0-.14-.03-.2-.08-.05-.05-.08-.12-.08-.2v-15.63c0-.08,.03-.14,.08-.2,.05-.05,.12-.08,.2-.08h2.06c.15,0,.26,.06,.32,.19l6.64,10.92s.06,.07,.09,.06,.05-.04,.05-.1l-.02-10.78c0-.08,.03-.14,.08-.2Z"/><path class="c" d="M229.4,162.06c.05,.05,.08,.12,.08,.2v1.78c0,.08-.03,.14-.08,.2s-.12,.08-.2,.08h-4.26c-.08,0-.12,.04-.12,.12v13.46c0,.08-.03,.14-.08,.2-.05,.05-.12,.08-.2,.08h-2.13c-.08,0-.14-.03-.2-.08-.05-.05-.08-.12-.08-.2v-13.46c0-.08-.04-.12-.12-.12h-4.09c-.08,0-.14-.03-.2-.08-.05-.05-.08-.12-.08-.2v-1.78c0-.08,.03-.14,.08-.2s.12-.08,.2-.08h11.26c.08,0,.14,.03,.2,.08Z"/><path class="c" d="M243.38,177.96l-3.05-6.66c-.03-.06-.08-.09-.14-.09h-2.77c-.08,0-.12,.04-.12,.12v6.57c0,.08-.03,.14-.08,.2-.05,.05-.12,.08-.2,.08h-2.13c-.08,0-.14-.03-.2-.08-.05-.05-.08-.12-.08-.2v-15.63c0-.08,.03-.14,.08-.2,.05-.05,.12-.08,.2-.08h6.36c.94,0,1.77,.2,2.5,.59s1.29,.95,1.69,1.67c.4,.72,.6,1.54,.6,2.46,0,1.06-.27,1.97-.82,2.72-.55,.75-1.31,1.27-2.28,1.56-.03,0-.05,.02-.07,.05-.02,.03-.02,.06,0,.09l3.26,6.73c.03,.06,.05,.11,.05,.14,0,.12-.08,.18-.25,.18h-2.22c-.15,0-.26-.07-.32-.21Zm-6.08-13.55v4.6c0,.08,.04,.12,.12,.12h3.47c.74,0,1.34-.22,1.79-.66,.45-.44,.68-1.02,.68-1.75s-.23-1.31-.68-1.76c-.46-.45-1.05-.67-1.79-.67h-3.47c-.08,0-.12,.04-.12,.12Z"/><path class="c" d="M262.34,164.21c-.05,.05-.12,.08-.2,.08h-7.89c-.08,0-.12,.04-.12,.12v4.33c0,.08,.04,.12,.12,.12h5.3c.08,0,.14,.03,.2,.08,.05,.05,.08,.12,.08,.2v1.76c0,.08-.03,.14-.08,.2-.05,.05-.12,.08-.2,.08h-5.3c-.08,0-.12,.04-.12,.12v4.46c0,.08,.04,.12,.12,.12h7.89c.08,0,.14,.03,.2,.08s.08,.12,.08,.2v1.76c0,.08-.03,.14-.08,.2-.05,.05-.12,.08-.2,.08h-10.41c-.08,0-.14-.03-.2-.08-.05-.05-.08-.12-.08-.2v-15.63c0-.08,.03-.14,.08-.2,.05-.05,.12-.08,.2-.08h10.41c.08,0,.14,.03,.2,.08,.05,.05,.08,.12,.08,.2v1.76c0,.08-.03,.14-.08,.2Z"/><path class="c" d="M275.17,178.09c-.05-.05-.08-.12-.08-.2v-15.63c0-.08,.03-.14,.08-.2,.05-.05,.12-.08,.2-.08h5.64c1.09,0,2.06,.19,2.89,.58,.83,.39,1.48,.94,1.93,1.65s.68,1.55,.68,2.51v6.71c0,.96-.23,1.79-.68,2.51s-1.1,1.27-1.93,1.65-1.8,.58-2.89,.58h-5.64c-.08,0-.14-.03-.2-.08Zm2.72-2.23h3.24c.82,0,1.47-.26,1.95-.78,.49-.52,.74-1.21,.75-2.07v-5.85c0-.88-.25-1.58-.74-2.09-.49-.52-1.16-.77-1.99-.77h-3.21c-.08,0-.12,.04-.12,.12v11.33c0,.08,.04,.12,.12,.12Z"/><path class="c" d="M302.92,164.21c-.05,.05-.12,.08-.2,.08h-7.89c-.08,0-.12,.04-.12,.12v4.33c0,.08,.04,.12,.12,.12h5.3c.08,0,.14,.03,.2,.08,.05,.05,.08,.12,.08,.2v1.76c0,.08-.03,.14-.08,.2s-.12,.08-.2,.08h-5.3c-.08,0-.12,.04-.12,.12v4.46c0,.08,.04,.12,.12,.12h7.89c.08,0,.14,.03,.2,.08s.08,.12,.08,.2v1.76c0,.08-.03,.14-.08,.2-.05,.05-.12,.08-.2,.08h-10.41c-.08,0-.14-.03-.2-.08-.05-.05-.08-.12-.08-.2v-15.63c0-.08,.03-.14,.08-.2,.05-.05,.12-.08,.2-.08h10.41c.08,0,.14,.03,.2,.08,.05,.05,.08,.12,.08,.2v1.76c0,.08-.03,.14-.08,.2Z"/><path class="c" d="M324.72,169.86c1.57,.74,2.36,2.01,2.36,3.82,0,1.46-.49,2.58-1.47,3.34-.98,.76-2.25,1.14-3.83,1.14h-5.83c-.08,0-.14-.03-.2-.08-.05-.05-.08-.12-.08-.2v-15.63c0-.08,.03-.14,.08-.2,.05-.05,.12-.08,.2-.08h5.64c1.68,0,2.98,.36,3.89,1.09,.91,.73,1.36,1.82,1.36,3.28,0,1.62-.71,2.74-2.13,3.38-.09,.05-.09,.09,0,.14Zm-6.36-5.46v4.28c0,.08,.04,.12,.12,.12h3.12c.82,0,1.46-.2,1.93-.59,.47-.39,.71-.94,.71-1.63s-.24-1.27-.71-1.68c-.47-.41-1.11-.61-1.93-.61h-3.12c-.08,0-.12,.04-.12,.12Zm5.33,10.78c.47-.43,.71-1.02,.71-1.76s-.24-1.34-.72-1.77c-.48-.42-1.13-.64-1.94-.64h-3.26c-.08,0-.12,.04-.12,.12v4.58c0,.08,.04,.12,.12,.12h3.31c.8,0,1.44-.22,1.91-.65Z"/><path class="c" d="M332.8,178.09c-.05-.05-.08-.12-.08-.2v-15.63c0-.08,.03-.14,.08-.2,.05-.05,.12-.08,.2-.08h2.13c.08,0,.14,.03,.2,.08,.05,.05,.08,.12,.08,.2v15.63c0,.08-.03,.14-.08,.2s-.12,.08-.2,.08h-2.13c-.08,0-.14-.03-.2-.08Z"/><path class="c" d="M352.32,164.21c-.05,.05-.12,.08-.2,.08h-7.89c-.08,0-.12,.04-.12,.12v4.33c0,.08,.04,.12,.12,.12h5.3c.08,0,.14,.03,.2,.08,.05,.05,.08,.12,.08,.2v1.76c0,.08-.03,.14-.08,.2s-.12,.08-.2,.08h-5.3c-.08,0-.12,.04-.12,.12v4.46c0,.08,.04,.12,.12,.12h7.89c.08,0,.14,.03,.2,.08s.08,.12,.08,.2v1.76c0,.08-.03,.14-.08,.2-.05,.05-.12,.08-.2,.08h-10.41c-.08,0-.14-.03-.2-.08-.05-.05-.08-.12-.08-.2v-15.63c0-.08,.03-.14,.08-.2,.05-.05,.12-.08,.2-.08h10.41c.08,0,.14,.03,.2,.08,.05,.05,.08,.12,.08,.2v1.76c0,.08-.03,.14-.08,.2Z"/><path class="c" d="M367.29,162.06c.05-.05,.12-.08,.2-.08h2.13c.08,0,.14,.03,.2,.08,.05,.05,.08,.12,.08,.2v15.63c0,.08-.03,.14-.08,.2s-.12,.08-.2,.08h-2.06c-.15,0-.26-.06-.32-.18l-6.66-10.92s-.06-.07-.09-.06c-.03,0-.05,.04-.05,.1l.05,10.78c0,.08-.03,.14-.08,.2s-.12,.08-.2,.08h-2.13c-.08,0-.14-.03-.2-.08-.05-.05-.08-.12-.08-.2v-15.63c0-.08,.03-.14,.08-.2,.05-.05,.12-.08,.2-.08h2.06c.15,0,.26,.06,.32,.19l6.64,10.92s.06,.07,.09,.06c.03,0,.05-.04,.05-.1l-.02-10.78c0-.08,.03-.14,.08-.2Z"/><path class="c" d="M375.06,172.28c-.05-.05-.08-.12-.08-.2v-1.76c0-.08,.03-.14,.08-.2,.05-.05,.12-.08,.2-.08h7.29c.08,0,.14,.03,.2,.08,.05,.05,.08,.12,.08,.2v1.76c0,.08-.03,.14-.08,.2s-.12,.08-.2,.08h-7.29c-.08,0-.14-.03-.2-.08Z"/><path class="c" d="M398.81,164.21c-.05,.05-.12,.08-.2,.08h-7.89c-.08,0-.12,.04-.12,.12v4.33c0,.08,.04,.12,.12,.12h5.3c.08,0,.14,.03,.2,.08,.05,.05,.08,.12,.08,.2v1.76c0,.08-.03,.14-.08,.2s-.12,.08-.2,.08h-5.3c-.08,0-.12,.04-.12,.12v4.46c0,.08,.04,.12,.12,.12h7.89c.08,0,.14,.03,.2,.08s.08,.12,.08,.2v1.76c0,.08-.03,.14-.08,.2-.05,.05-.12,.08-.2,.08h-10.41c-.08,0-.14-.03-.2-.08-.05-.05-.08-.12-.08-.2v-15.63c0-.08,.03-.14,.08-.2,.05-.05,.12-.08,.2-.08h10.41c.08,0,.14,.03,.2,.08,.05,.05,.08,.12,.08,.2v1.76c0,.08-.03,.14-.08,.2Zm-8.85-3.77c-.03-.07-.02-.15,.05-.24l1.76-2.43c.08-.11,.18-.16,.32-.16h2.43c.14,0,.25,.05,.32,.16l1.76,2.43c.05,.06,.07,.12,.07,.19,0,.11-.08,.16-.23,.16h-1.62c-.14,0-.25-.06-.32-.19l-1.09-1.55s-.06-.05-.09-.05-.05,.02-.07,.05l-1.09,1.55c-.08,.12-.19,.19-.32,.19h-1.64c-.12,0-.2-.03-.23-.1Z"/><path class="c" d="M415.11,162.06c.05,.05,.08,.12,.08,.2v1.78c0,.08-.03,.14-.08,.2-.05,.05-.12,.08-.2,.08h-4.25c-.08,0-.12,.04-.12,.12v13.46c0,.08-.03,.14-.08,.2s-.12,.08-.2,.08h-2.13c-.08,0-.14-.03-.2-.08s-.08-.12-.08-.2v-13.46c0-.08-.04-.12-.12-.12h-4.09c-.08,0-.14-.03-.2-.08-.05-.05-.08-.12-.08-.2v-1.78c0-.08,.03-.14,.08-.2,.05-.05,.12-.08,.2-.08h11.26c.08,0,.14,.03,.2,.08Z"/><path class="c" d="M429.09,177.96l-3.05-6.66c-.03-.06-.08-.09-.14-.09h-2.78c-.08,0-.12,.04-.12,.12v6.57c0,.08-.03,.14-.08,.2s-.12,.08-.2,.08h-2.13c-.08,0-.14-.03-.2-.08-.05-.05-.08-.12-.08-.2v-15.63c0-.08,.03-.14,.08-.2,.05-.05,.12-.08,.2-.08h6.36c.94,0,1.77,.2,2.5,.59s1.29,.95,1.69,1.67c.4,.72,.6,1.54,.6,2.46,0,1.06-.27,1.97-.82,2.72-.55,.75-1.31,1.27-2.28,1.56-.03,0-.05,.02-.07,.05-.02,.03-.02,.06,0,.09l3.26,6.73c.03,.06,.05,.11,.05,.14,0,.12-.08,.18-.25,.18h-2.22c-.15,0-.26-.07-.32-.21Zm-6.08-13.55v4.6c0,.08,.04,.12,.12,.12h3.47c.74,0,1.34-.22,1.79-.66,.45-.44,.68-1.02,.68-1.75s-.23-1.31-.68-1.76c-.46-.45-1.05-.67-1.79-.67h-3.47c-.08,0-.12,.04-.12,.12Z"/><path class="c" d="M448.04,164.21c-.05,.05-.12,.08-.2,.08h-7.89c-.08,0-.12,.04-.12,.12v4.33c0,.08,.04,.12,.12,.12h5.3c.08,0,.14,.03,.2,.08,.05,.05,.08,.12,.08,.2v1.76c0,.08-.03,.14-.08,.2s-.12,.08-.2,.08h-5.3c-.08,0-.12,.04-.12,.12v4.46c0,.08,.04,.12,.12,.12h7.89c.08,0,.14,.03,.2,.08s.08,.12,.08,.2v1.76c0,.08-.03,.14-.08,.2-.05,.05-.12,.08-.2,.08h-10.41c-.08,0-.14-.03-.2-.08-.05-.05-.08-.12-.08-.2v-15.63c0-.08,.03-.14,.08-.2,.05-.05,.12-.08,.2-.08h10.41c.08,0,.14,.03,.2,.08,.05,.05,.08,.12,.08,.2v1.76c0,.08-.03,.14-.08,.2Z"/></g><g><path class="b" d="M181.9,114.63l-3.31,4.39c-2.45-2.81-5.95-4.55-9.35-4.55-6.72,0-11.99,5.52-11.99,12.57s5.28,12.62,11.99,12.62c3.36,0,6.81-1.63,9.35-4.24l3.36,3.98c-3.41,3.58-8.25,5.88-13,5.88-9.83,0-17.46-7.92-17.46-18.19s7.72-17.98,17.65-17.98c4.75,0,9.5,2.09,12.76,5.52Z"/><path class="b" d="M192.21,136.95l-3.21,8.07h-5.9l14.82-35.76h5.8l14.68,35.76h-6.04l-3.21-8.07h-16.93Zm8.44-21.25l-6.33,15.89h12.67l-6.33-15.89Z"/><path class="b" d="M236.25,109.26c8.44,0,13.29,4.44,13.29,12.21s-4.85,12.77-13.29,12.77h-7.72v10.78h-5.66v-35.76h13.38Zm-7.72,19.57h7.48c5.18,0,8.11-2.35,8.11-7.2s-2.93-6.95-8.11-6.95h-7.48v14.15Z"/><path class="b" d="M291.07,145.02l-17.9-25.65v25.65h-5.66v-35.76h5.56l17.99,25.7v-25.7h5.56v35.76h-5.56Z"/><path class="b" d="M310.26,136.95l-3.21,8.07h-5.9l14.82-35.76h5.8l14.68,35.76h-6.04l-3.21-8.07h-16.93Zm8.44-21.25l-6.33,15.89h12.67l-6.33-15.89Z"/><path class="b" d="M349.88,114.68v30.35h-5.66v-30.35h-10.6v-5.42h26.91v5.42h-10.65Z"/><path class="b" d="M393.92,130.21c0,9.35-5.52,15.07-14.58,15.07s-14.63-5.72-14.63-15.07v-20.95h5.66v20.95c0,6.03,3.5,9.66,9.02,9.66s8.88-3.58,8.88-9.66v-20.95h5.66v20.95Z"/><path class="b" d="M417.18,134.19c-.48,.05-1.01,.05-1.54,.05h-7.96v10.78h-5.66v-35.76h13.62c8.59,0,13.53,4.44,13.53,12.21,0,5.72-2.49,9.76-6.96,11.6l7.53,11.95h-6.43l-6.14-10.83Zm-1.54-5.36c5.18,0,8.16-2.35,8.16-7.2s-2.97-6.95-8.16-6.95h-7.96v14.15h7.96Z"/><path class="b" d="M441.45,136.95l-3.21,8.07h-5.9l14.82-35.76h5.8l14.68,35.76h-6.04l-3.21-8.07h-16.93Zm8.44-21.25l-6.33,15.89h12.67l-6.33-15.89Z"/></g></svg>