<?xml version="1.0" encoding="UTF-8"?><svg id="a" xmlns="http://www.w3.org/2000/svg" viewBox="0 0 566.93 340.16"><defs><style>.b{fill:#fff;}</style></defs><path class="b" d="M359.17,213.56c-6.42,.09-8.34,8.88-2.46,11.49,2.13,.88,4.6,.54,6.74-.14,5.03-1.65,8.51-6.85,8.04-12.12-.37-9.61-9.24-17.51-18.84-16.77-.77,.02-1.66,.1-2.43,.19-13.52,1.42-24.97,12.95-26.13,26.43-.48,5.61,.3,11.32,1.91,16.7,5.69,19.51,24.84,33.87,45.2,33.84,4.33,.03,8.72-.32,12.99-.99,33.15-5.02,60.53-32.41,65.11-65.62,1.72-12.36,.58-25-1.85-37.19-11.62-57.03-62.96-99.76-121.22-101.16-45.47-1.04-90.54,12.97-127.35,39.63-39.1,28.06-68.06,69.9-80.28,116.43-4.43,16.62-6.73,33.77-7.06,50.97-.63-35.71,8.19-71.46,25.47-102.78,15.06-27.54,36.57-51.65,62.12-69.97,35.55-25.49,78.38-39.36,122.14-39.64,42.92-.84,85.27,20.74,109.88,55.82,22.61,31.65,33.98,80.87,13.87,116.18-13.59,24.73-40.48,41.37-68.73,42.37-24.2,1.68-46.7-13.61-53.33-36.99-1.62-5.79-2.34-11.91-1.7-17.9,1.54-14.61,14.13-26.87,28.76-28.07,.82-.08,1.76-.14,2.59-.14,7.93-.38,15.71,4.58,18.67,11.93,2.77,6.51,1.69,14.57-4.82,18.37-3.75,2.22-9.83,3.02-12.56-1.1-2.84-4.04,.37-9.92,5.29-9.73Z"/><g><path class="b" d="M211.56,175.35c-.61-.32-1.08-.76-1.41-1.32-.33-.57-.5-1.23-.5-1.97v-3.96c0-.75,.17-1.41,.5-1.97,.33-.57,.8-1.01,1.41-1.32s1.32-.47,2.12-.47,1.49,.15,2.1,.45c.61,.3,1.08,.72,1.41,1.27,.33,.55,.5,1.18,.5,1.89,0,.05-.02,.1-.06,.14s-.08,.06-.14,.06l-1.48,.08c-.13,0-.19-.06-.19-.18,0-.63-.2-1.14-.59-1.52-.39-.39-.91-.58-1.56-.58s-1.18,.19-1.57,.58-.59,.89-.59,1.52v4.09c0,.62,.2,1.12,.59,1.51,.4,.38,.92,.58,1.57,.58s1.17-.19,1.56-.57c.39-.38,.59-.89,.59-1.52,0-.12,.06-.18,.19-.18l1.48,.06c.05,0,.1,.02,.14,.05,.04,.03,.06,.07,.06,.11,0,.73-.17,1.37-.5,1.92s-.8,.98-1.41,1.28c-.61,.3-1.31,.45-2.1,.45s-1.51-.16-2.12-.47Z"/><path class="b" d="M229.08,166.01s-.08,.06-.14,.06h-5.47c-.05,0-.08,.03-.08,.08v3c0,.05,.03,.08,.08,.08h3.68c.05,0,.1,.02,.14,.06,.04,.04,.06,.08,.06,.14v1.22c0,.05-.02,.1-.06,.14-.04,.04-.08,.06-.14,.06h-3.68c-.05,0-.08,.03-.08,.08v3.1c0,.05,.03,.08,.08,.08h5.47c.05,0,.1,.02,.14,.06s.06,.08,.06,.14v1.22c0,.05-.02,.1-.06,.14-.04,.04-.08,.06-.14,.06h-7.22c-.05,0-.1-.02-.14-.06-.04-.04-.06-.08-.06-.14v-10.85c0-.05,.02-.1,.06-.14,.04-.04,.08-.06,.14-.06h7.22c.05,0,.1,.02,.14,.06,.04,.04,.06,.08,.06,.14v1.22c0,.05-.02,.1-.06,.14Z"/><path class="b" d="M239.46,164.51s.08-.06,.14-.06h1.48c.05,0,.1,.02,.14,.06,.04,.04,.06,.08,.06,.14v10.85c0,.05-.02,.1-.06,.14-.04,.04-.08,.06-.14,.06h-1.43c-.11,0-.18-.04-.22-.13l-4.62-7.58s-.04-.05-.06-.04c-.02,0-.03,.03-.03,.07l.03,7.48c0,.05-.02,.1-.06,.14-.04,.04-.08,.06-.14,.06h-1.48c-.05,0-.1-.02-.14-.06-.04-.04-.06-.08-.06-.14v-10.85c0-.05,.02-.1,.06-.14,.04-.04,.08-.06,.14-.06h1.43c.11,0,.18,.04,.22,.13l4.61,7.58s.04,.05,.06,.04,.03-.03,.03-.07l-.02-7.48c0-.05,.02-.1,.06-.14Z"/><path class="b" d="M252.98,164.51s.06,.08,.06,.14v1.24c0,.05-.02,.1-.06,.14s-.08,.06-.14,.06h-2.95c-.05,0-.08,.03-.08,.08v9.34c0,.05-.02,.1-.06,.14-.04,.04-.08,.06-.14,.06h-1.48c-.05,0-.1-.02-.14-.06-.04-.04-.06-.08-.06-.14v-9.34c0-.05-.03-.08-.08-.08h-2.84c-.05,0-.1-.02-.14-.06-.04-.04-.06-.08-.06-.14v-1.24c0-.05,.02-.1,.06-.14s.08-.06,.14-.06h7.82c.05,0,.1,.02,.14,.06Z"/><path class="b" d="M262.68,175.55l-2.12-4.62s-.05-.06-.1-.06h-1.93c-.05,0-.08,.03-.08,.08v4.56c0,.05-.02,.1-.06,.14-.04,.04-.08,.06-.14,.06h-1.48c-.05,0-.1-.02-.14-.06-.04-.04-.06-.08-.06-.14v-10.85c0-.05,.02-.1,.06-.14,.04-.04,.08-.06,.14-.06h4.41c.65,0,1.23,.14,1.73,.41s.89,.66,1.17,1.16c.28,.5,.42,1.07,.42,1.71,0,.74-.19,1.37-.57,1.89-.38,.52-.91,.88-1.58,1.08-.02,0-.04,.01-.05,.03-.01,.02-.01,.04,0,.06l2.26,4.67s.03,.08,.03,.1c0,.09-.06,.13-.18,.13h-1.54c-.11,0-.18-.05-.23-.14Zm-4.22-9.41v3.19c0,.05,.03,.08,.08,.08h2.41c.51,0,.93-.15,1.24-.46,.32-.3,.47-.71,.47-1.21s-.16-.91-.47-1.22c-.32-.31-.73-.47-1.24-.47h-2.41c-.05,0-.08,.03-.08,.08Z"/><path class="b" d="M275.83,166.01s-.08,.06-.14,.06h-5.47c-.05,0-.08,.03-.08,.08v3c0,.05,.03,.08,.08,.08h3.68c.05,0,.1,.02,.14,.06,.04,.04,.06,.08,.06,.14v1.22c0,.05-.02,.1-.06,.14-.04,.04-.08,.06-.14,.06h-3.68c-.05,0-.08,.03-.08,.08v3.1c0,.05,.03,.08,.08,.08h5.47c.05,0,.1,.02,.14,.06s.06,.08,.06,.14v1.22c0,.05-.02,.1-.06,.14-.04,.04-.08,.06-.14,.06h-7.22c-.05,0-.1-.02-.14-.06-.04-.04-.06-.08-.06-.14v-10.85c0-.05,.02-.1,.06-.14,.04-.04,.08-.06,.14-.06h7.22c.05,0,.1,.02,.14,.06,.04,.04,.06,.08,.06,.14v1.22c0,.05-.02,.1-.06,.14Z"/><path class="b" d="M284.74,175.64s-.06-.08-.06-.14v-10.85c0-.05,.02-.1,.06-.14,.04-.04,.08-.06,.14-.06h3.92c.76,0,1.43,.13,2.01,.4,.58,.27,1.02,.65,1.34,1.15s.47,1.08,.47,1.74v4.65c0,.66-.16,1.24-.47,1.74s-.76,.88-1.34,1.15-1.25,.4-2.01,.4h-3.92c-.05,0-.1-.02-.14-.06Zm1.89-1.55h2.25c.57,0,1.02-.18,1.36-.54,.34-.36,.51-.84,.52-1.44v-4.06c0-.61-.17-1.09-.51-1.45-.34-.36-.8-.54-1.38-.54h-2.23c-.05,0-.08,.03-.08,.08v7.86c0,.05,.03,.08,.08,.08Z"/><path class="b" d="M304,166.01s-.08,.06-.14,.06h-5.47c-.05,0-.08,.03-.08,.08v3c0,.05,.03,.08,.08,.08h3.68c.05,0,.1,.02,.14,.06,.04,.04,.06,.08,.06,.14v1.22c0,.05-.02,.1-.06,.14s-.08,.06-.14,.06h-3.68c-.05,0-.08,.03-.08,.08v3.1c0,.05,.03,.08,.08,.08h5.47c.05,0,.1,.02,.14,.06s.06,.08,.06,.14v1.22c0,.05-.02,.1-.06,.14-.04,.04-.08,.06-.14,.06h-7.22c-.05,0-.1-.02-.14-.06-.04-.04-.06-.08-.06-.14v-10.85c0-.05,.02-.1,.06-.14,.04-.04,.08-.06,.14-.06h7.22c.05,0,.1,.02,.14,.06,.04,.04,.06,.08,.06,.14v1.22c0,.05-.02,.1-.06,.14Z"/><path class="b" d="M319.13,169.93c1.09,.51,1.64,1.4,1.64,2.65,0,1.02-.34,1.79-1.02,2.32-.68,.53-1.56,.79-2.66,.79h-4.04c-.05,0-.1-.02-.14-.06-.04-.04-.06-.08-.06-.14v-10.85c0-.05,.02-.1,.06-.14,.04-.04,.08-.06,.14-.06h3.92c1.17,0,2.07,.25,2.7,.75,.63,.5,.95,1.26,.95,2.28,0,1.12-.49,1.9-1.48,2.34-.06,.03-.06,.06,0,.1Zm-4.41-3.79v2.97c0,.05,.03,.08,.08,.08h2.17c.57,0,1.01-.14,1.34-.41,.33-.27,.49-.65,.49-1.13s-.16-.88-.49-1.16c-.33-.28-.77-.43-1.34-.43h-2.17c-.05,0-.08,.03-.08,.08Zm3.7,7.48c.33-.3,.49-.71,.49-1.22s-.17-.93-.5-1.23c-.33-.29-.78-.44-1.35-.44h-2.26c-.05,0-.08,.03-.08,.08v3.18c0,.05,.03,.08,.08,.08h2.3c.56,0,1-.15,1.32-.45Z"/><path class="b" d="M324.74,175.64s-.06-.08-.06-.14v-10.85c0-.05,.02-.1,.06-.14,.04-.04,.08-.06,.14-.06h1.48c.05,0,.1,.02,.14,.06,.04,.04,.06,.08,.06,.14v10.85c0,.05-.02,.1-.06,.14s-.08,.06-.14,.06h-1.48c-.05,0-.1-.02-.14-.06Z"/><path class="b" d="M338.28,166.01s-.08,.06-.14,.06h-5.47c-.05,0-.08,.03-.08,.08v3c0,.05,.03,.08,.08,.08h3.68c.05,0,.1,.02,.14,.06,.04,.04,.06,.08,.06,.14v1.22c0,.05-.02,.1-.06,.14s-.08,.06-.14,.06h-3.68c-.05,0-.08,.03-.08,.08v3.1c0,.05,.03,.08,.08,.08h5.47c.05,0,.1,.02,.14,.06s.06,.08,.06,.14v1.22c0,.05-.02,.1-.06,.14-.04,.04-.08,.06-.14,.06h-7.22c-.05,0-.1-.02-.14-.06-.04-.04-.06-.08-.06-.14v-10.85c0-.05,.02-.1,.06-.14,.04-.04,.08-.06,.14-.06h7.22c.05,0,.1,.02,.14,.06,.04,.04,.06,.08,.06,.14v1.22c0,.05-.02,.1-.06,.14Z"/><path class="b" d="M348.67,164.51s.08-.06,.14-.06h1.48c.05,0,.1,.02,.14,.06,.04,.04,.06,.08,.06,.14v10.85c0,.05-.02,.1-.06,.14s-.08,.06-.14,.06h-1.43c-.11,0-.18-.04-.23-.13l-4.62-7.58s-.04-.05-.06-.04c-.02,0-.03,.03-.03,.07l.03,7.48c0,.05-.02,.1-.06,.14s-.08,.06-.14,.06h-1.48c-.05,0-.1-.02-.14-.06-.04-.04-.06-.08-.06-.14v-10.85c0-.05,.02-.1,.06-.14,.04-.04,.08-.06,.14-.06h1.43c.11,0,.18,.04,.22,.13l4.61,7.58s.04,.05,.06,.04c.02,0,.03-.03,.03-.07l-.02-7.48c0-.05,.02-.1,.06-.14Z"/><path class="b" d="M354.06,171.61s-.06-.08-.06-.14v-1.22c0-.05,.02-.1,.06-.14,.04-.04,.08-.06,.14-.06h5.06c.05,0,.1,.02,.14,.06,.04,.04,.06,.08,.06,.14v1.22c0,.05-.02,.1-.06,.14s-.08,.06-.14,.06h-5.06c-.05,0-.1-.02-.14-.06Z"/><path class="b" d="M370.55,166.01s-.08,.06-.14,.06h-5.47c-.05,0-.08,.03-.08,.08v3c0,.05,.03,.08,.08,.08h3.68c.05,0,.1,.02,.14,.06,.04,.04,.06,.08,.06,.14v1.22c0,.05-.02,.1-.06,.14s-.08,.06-.14,.06h-3.68c-.05,0-.08,.03-.08,.08v3.1c0,.05,.03,.08,.08,.08h5.47c.05,0,.1,.02,.14,.06s.06,.08,.06,.14v1.22c0,.05-.02,.1-.06,.14-.04,.04-.08,.06-.14,.06h-7.22c-.05,0-.1-.02-.14-.06-.04-.04-.06-.08-.06-.14v-10.85c0-.05,.02-.1,.06-.14,.04-.04,.08-.06,.14-.06h7.22c.05,0,.1,.02,.14,.06,.04,.04,.06,.08,.06,.14v1.22c0,.05-.02,.1-.06,.14Zm-6.14-2.62s-.01-.1,.03-.17l1.22-1.69c.05-.07,.13-.11,.23-.11h1.68c.1,0,.17,.04,.23,.11l1.22,1.69s.05,.09,.05,.13c0,.07-.05,.11-.16,.11h-1.12c-.1,0-.17-.04-.23-.13l-.75-1.08s-.04-.03-.06-.03-.04,.01-.05,.03l-.75,1.08c-.05,.09-.13,.13-.23,.13h-1.14c-.09,0-.14-.02-.16-.07Z"/><path class="b" d="M381.86,164.51s.06,.08,.06,.14v1.24c0,.05-.02,.1-.06,.14-.04,.04-.08,.06-.14,.06h-2.95c-.05,0-.08,.03-.08,.08v9.34c0,.05-.02,.1-.06,.14s-.08,.06-.14,.06h-1.48c-.05,0-.1-.02-.14-.06s-.06-.08-.06-.14v-9.34c0-.05-.03-.08-.08-.08h-2.84c-.05,0-.1-.02-.14-.06-.04-.04-.06-.08-.06-.14v-1.24c0-.05,.02-.1,.06-.14,.04-.04,.08-.06,.14-.06h7.82c.05,0,.1,.02,.14,.06Z"/><path class="b" d="M391.56,175.55l-2.12-4.62s-.05-.06-.1-.06h-1.93c-.05,0-.08,.03-.08,.08v4.56c0,.05-.02,.1-.06,.14s-.08,.06-.14,.06h-1.48c-.05,0-.1-.02-.14-.06-.04-.04-.06-.08-.06-.14v-10.85c0-.05,.02-.1,.06-.14,.04-.04,.08-.06,.14-.06h4.41c.65,0,1.23,.14,1.73,.41s.89,.66,1.17,1.16c.28,.5,.42,1.07,.42,1.71,0,.74-.19,1.37-.57,1.89-.38,.52-.91,.88-1.58,1.08-.02,0-.04,.01-.05,.03-.01,.02-.01,.04,0,.06l2.26,4.67s.03,.08,.03,.1c0,.09-.06,.13-.18,.13h-1.54c-.11,0-.18-.05-.23-.14Zm-4.22-9.41v3.19c0,.05,.03,.08,.08,.08h2.41c.51,0,.93-.15,1.24-.46,.32-.3,.47-.71,.47-1.21s-.16-.91-.47-1.22c-.32-.31-.73-.47-1.24-.47h-2.41c-.05,0-.08,.03-.08,.08Z"/><path class="b" d="M404.72,166.01s-.08,.06-.14,.06h-5.47c-.05,0-.08,.03-.08,.08v3c0,.05,.03,.08,.08,.08h3.68c.05,0,.1,.02,.14,.06,.04,.04,.06,.08,.06,.14v1.22c0,.05-.02,.1-.06,.14s-.08,.06-.14,.06h-3.68c-.05,0-.08,.03-.08,.08v3.1c0,.05,.03,.08,.08,.08h5.47c.05,0,.1,.02,.14,.06s.06,.08,.06,.14v1.22c0,.05-.02,.1-.06,.14-.04,.04-.08,.06-.14,.06h-7.22c-.05,0-.1-.02-.14-.06-.04-.04-.06-.08-.06-.14v-10.85c0-.05,.02-.1,.06-.14,.04-.04,.08-.06,.14-.06h7.22c.05,0,.1,.02,.14,.06,.04,.04,.06,.08,.06,.14v1.22c0,.05-.02,.1-.06,.14Z"/></g><g><path class="b" d="M220.01,131.6l-2.3,3.05c-1.7-1.95-4.13-3.16-6.49-3.16-4.66,0-8.32,3.83-8.32,8.72s3.66,8.76,8.32,8.76c2.33,0,4.73-1.13,6.49-2.94l2.33,2.77c-2.36,2.48-5.73,4.08-9.02,4.08-6.83,0-12.12-5.5-12.12-12.62s5.36-12.48,12.25-12.48c3.3,0,6.59,1.45,8.86,3.83Z"/><path class="b" d="M227.17,147.09l-2.23,5.6h-4.1l10.29-24.82h4.03l10.19,24.82h-4.19l-2.23-5.6h-11.75Zm5.86-14.75l-4.39,11.03h8.79l-4.39-11.03Z"/><path class="b" d="M257.73,127.87c5.86,0,9.22,3.08,9.22,8.47s-3.36,8.86-9.22,8.86h-5.36v7.48h-3.93v-24.82h9.29Zm-5.36,13.58h5.19c3.6,0,5.63-1.63,5.63-5s-2.03-4.82-5.63-4.82h-5.19v9.82Z"/><path class="b" d="M295.78,152.69l-12.42-17.8v17.8h-3.93v-24.82h3.86l12.49,17.83v-17.83h3.86v24.82h-3.86Z"/><path class="b" d="M309.09,147.09l-2.23,5.6h-4.1l10.29-24.82h4.03l10.19,24.82h-4.2l-2.23-5.6h-11.75Zm5.86-14.75l-4.4,11.03h8.79l-4.39-11.03Z"/><path class="b" d="M336.59,131.63v21.06h-3.93v-21.06h-7.36v-3.76h18.68v3.76h-7.39Z"/><path class="b" d="M367.15,142.41c0,6.49-3.83,10.46-10.12,10.46s-10.15-3.97-10.15-10.46v-14.54h3.93v14.54c0,4.18,2.43,6.7,6.26,6.7s6.16-2.48,6.16-6.7v-14.54h3.93v14.54Z"/><path class="b" d="M383.29,145.17c-.33,.04-.7,.04-1.07,.04h-5.53v7.48h-3.93v-24.82h9.46c5.96,0,9.39,3.08,9.39,8.47,0,3.97-1.73,6.77-4.83,8.05l5.23,8.3h-4.46l-4.26-7.52Zm-1.07-3.72c3.6,0,5.66-1.63,5.66-5s-2.06-4.82-5.66-4.82h-5.53v9.82h5.53Z"/><path class="b" d="M400.14,147.09l-2.23,5.6h-4.09l10.29-24.82h4.03l10.19,24.82h-4.2l-2.23-5.6h-11.75Zm5.86-14.75l-4.4,11.03h8.79l-4.39-11.03Z"/></g></svg>